<svg width="19" height="19" viewBox="0 0 19 19" fill="none" xmlns="http://www.w3.org/2000/svg">
<g id="mage:behance">
<path id="Vector" d="M5.74536 8.67746V7.42355C5.74536 7.34934 5.74536 7.31965 5.84224 7.31965C6.67271 7.31965 7.3477 7.27043 7.68286 7.46809C8.0188 7.66496 8.03286 7.93684 8.03833 8.01809C8.04458 8.09934 8.04146 8.21574 7.88521 8.49934C7.72896 8.78293 7.02974 8.7884 6.52505 8.7884H5.85708C5.77505 8.7884 5.74536 8.75871 5.74536 8.67746ZM8.04692 9.99152C8.12418 10.0903 8.1793 10.2046 8.20856 10.3266C8.23783 10.4485 8.24056 10.5754 8.21655 10.6985C8.19255 10.8216 8.14239 10.9381 8.06945 11.0402C7.99652 11.1422 7.90251 11.2274 7.7938 11.29C7.63391 11.357 7.46249 11.3923 7.28911 11.3939H5.84927C5.77505 11.3939 5.74536 11.3939 5.74536 11.2978V9.8134C5.74536 9.73918 5.74536 9.70949 5.84224 9.70949H6.79927C7.39302 9.70949 7.76411 9.65793 8.04692 9.99152Z" fill="#C9C9D1"/>
<path id="Vector_2" d="M13.2727 9.30391C13.2329 9.21001 13.1725 9.12628 13.096 9.05893C13.0194 8.99157 12.9287 8.94233 12.8305 8.91484C12.6342 8.86133 12.4289 8.85003 12.228 8.88167C12.0271 8.91332 11.8351 8.9872 11.6648 9.09844C11.495 9.26973 11.3853 9.49152 11.3523 9.73047C11.3523 9.81406 11.3523 9.82969 11.4516 9.82969H13.3031C13.3945 9.82969 13.3945 9.82969 13.3867 9.71484C13.3778 9.57131 13.3394 9.43127 13.2727 9.30391ZM13.2727 9.30391C13.2329 9.21001 13.1717 9.12628 13.0952 9.05893C13.0186 8.99157 12.9287 8.94233 12.8305 8.91484C12.6342 8.86133 12.4281 8.85003 12.2272 8.88167C12.0263 8.91332 11.8351 8.9872 11.6648 9.09844C11.495 9.26973 11.3846 9.49152 11.3516 9.73047C11.3516 9.81406 11.3516 9.82969 11.4508 9.82969H13.3031C13.3945 9.82969 13.3945 9.82969 13.3867 9.71484C13.3778 9.57131 13.3379 9.43127 13.2711 9.30391M14.1406 1.95312H5C4.19192 1.95312 3.41693 2.27413 2.84553 2.84553C2.27413 3.41693 1.95313 4.19192 1.95312 5V14.1406C1.95313 14.9487 2.27413 15.7237 2.84553 16.2951C3.41693 16.8665 4.19192 17.1875 5 17.1875H14.1406C14.9487 17.1875 15.7237 16.8665 16.2951 16.2951C16.8665 15.7237 17.1875 14.9487 17.1875 14.1406V5C17.1875 4.19192 16.8665 3.41693 16.2951 2.84553C15.7237 2.27413 14.9487 1.95313 14.1406 1.95312ZM11.1547 6.80469C11.1547 6.74453 11.1547 6.72109 11.2234 6.72109H13.6914V7.36172C13.6914 7.36172 13.6937 7.40703 13.6531 7.40703H11.2617C11.1547 7.40703 11.1547 7.40703 11.1547 7.30078V6.80469ZM8.86953 12.4039C7.93203 12.9141 6.35625 12.7086 4.48984 12.7086V6.39375H7.46797C8.22969 6.39375 9.13594 6.58438 9.37969 7.39141C9.50626 7.74389 9.49856 8.13065 9.35805 8.47781C9.21754 8.82497 8.95407 9.10821 8.61797 9.27344C8.92778 9.38808 9.19825 9.58909 9.39739 9.85266C9.59653 10.1162 9.71599 10.4313 9.74163 10.7607C9.76727 11.09 9.69803 11.4198 9.54209 11.711C9.38615 12.0022 9.15005 12.2427 8.86172 12.4039H8.86953ZM14.5445 10.6062H11.4977C11.4141 10.6062 11.3375 10.6516 11.3523 10.7586C11.4438 11.2078 11.6492 11.6805 12.1148 11.7492C12.3607 11.822 12.6239 11.8105 12.8625 11.7167C13.1011 11.6228 13.3016 11.452 13.432 11.2313C13.432 11.2313 13.4703 11.1852 13.493 11.1852H14.4836C14.4836 11.1852 14.5445 11.1852 14.5289 11.2383C14.4252 11.5344 14.2705 11.8102 14.0719 12.0531C13.807 12.3059 13.4876 12.4942 13.1382 12.6036C12.7888 12.7129 12.4189 12.7403 12.0573 12.6837C11.6956 12.627 11.3518 12.4878 11.0526 12.2768C10.7534 12.0659 10.5069 11.7888 10.332 11.4672C10.224 11.2529 10.1569 11.0202 10.1344 10.7812C9.9985 10.1809 10.1024 9.55128 10.4238 9.0264C10.7453 8.50151 11.259 8.12287 11.8555 7.97109C13.5844 7.59766 14.6812 8.78594 14.6812 10.4617C14.6838 10.4813 14.6818 10.5012 14.6755 10.5199C14.6691 10.5386 14.6586 10.5556 14.6446 10.5696C14.6306 10.5835 14.6136 10.5941 14.5949 10.6005C14.5762 10.6068 14.5563 10.6088 14.5367 10.6062H14.5445ZM12.8383 8.91484C12.6421 8.8615 12.4368 8.85032 12.2359 8.88203C12.0352 8.91328 11.8555 8.95156 11.6727 9.09844C11.4898 9.24453 11.393 9.49141 11.3602 9.73047C11.3602 9.81406 11.3602 9.82969 11.4594 9.82969H13.3031C13.3945 9.82969 13.3945 9.82969 13.3867 9.71484C13.3778 9.57131 13.3394 9.43127 13.2727 9.30391C13.2329 9.21001 13.1725 9.12628 13.096 9.05893C13.0194 8.99157 12.9287 8.94233 12.8305 8.91484H12.8383Z" fill="#C9C9D1"/>
</g>
</svg>
