<svg width="22" height="22" viewBox="0 0 22 22" fill="none" xmlns="http://www.w3.org/2000/svg">
<rect width="22" height="22" rx="11" fill="#C9C9D1"/>
<path d="M7.69033 6.73034C7.98322 6.43745 7.98322 5.96258 7.69033 5.66968C7.39744 5.37679 6.92256 5.37679 6.62967 5.66968L7.69033 6.73034ZM2.36 11L1.82967 10.4697C1.53678 10.7626 1.53678 11.2374 1.82967 11.5303L2.36 11ZM6.62967 16.3303C6.92256 16.6232 7.39744 16.6232 7.69033 16.3303C7.98322 16.0374 7.98322 15.5626 7.69033 15.2697L6.62967 16.3303ZM14.3097 15.2697C14.0168 15.5626 14.0168 16.0374 14.3097 16.3303C14.6026 16.6232 15.0774 16.6232 15.3703 16.3303L14.3097 15.2697ZM19.64 11L20.1703 11.5303C20.4632 11.2374 20.4632 10.7626 20.1703 10.4697L19.64 11ZM15.3703 5.66968C15.0774 5.37679 14.6026 5.37679 14.3097 5.66968C14.0168 5.96258 14.0168 6.43745 14.3097 6.73034L15.3703 5.66968ZM6.62967 5.66968L1.82967 10.4697L2.89033 11.5303L7.69033 6.73034L6.62967 5.66968ZM1.82967 11.5303L6.62967 16.3303L7.69033 15.2697L2.89033 10.4697L1.82967 11.5303ZM15.3703 16.3303L20.1703 11.5303L19.1097 10.4697L14.3097 15.2697L15.3703 16.3303ZM20.1703 10.4697L15.3703 5.66968L14.3097 6.73034L19.1097 11.5303L20.1703 10.4697Z" fill="#6B6B6F"/>
</svg>
