<svg width="70" height="70" viewBox="0 0 70 70" fill="none" xmlns="http://www.w3.org/2000/svg">
<path d="M31.0654 0C29.9396 0.0554167 27.4167 0.793333 25.0367 1.91625C22.6567 3.05375 14.2567 8.21917 14.0933 20.9796C14.3033 33.0692 25.3138 53.62 32.7513 60.2233C32.7513 60.2233 20.6733 39.9467 19.8042 22.2688C18.9233 4.59375 31.0654 0 31.0654 0ZM38.8792 0C38.8792 0 51.0096 4.59375 50.1404 22.2688C49.2683 39.9467 37.1933 60.2233 37.1933 60.2233C44.6221 53.62 55.6383 33.0692 55.8483 20.9796C55.6821 8.21917 47.285 3.05375 44.905 1.91625C42.525 0.793333 40.0021 0.0554167 38.8792 0ZM34.8542 0.0554167C34.2869 0.0498527 33.7284 0.194776 33.2354 0.475417C28.77 2.8875 25.9846 11.6142 26.7663 25.2583C27.3058 34.7142 29.7092 46.5238 33.8304 60.2233H35.8721C39.9933 46.5238 42.4054 34.7258 42.945 25.27C43.7267 11.6287 40.9383 2.8875 36.4729 0.475417C35.98 0.194776 35.4214 0.0498527 34.8542 0.0554167ZM20.4663 3.10917C20.4663 3.10917 7.41709 8.48458 10.0071 23.9896C12.5854 39.5063 26.3054 56.0583 30.3829 59.5729C31.85 60.9058 13.5333 40.4746 11.7571 22.5342C10.9083 15.7587 12.8946 8.2425 20.4663 3.10917ZM49.5338 3.10917C57.1025 8.2425 59.0888 15.7587 58.24 22.5342C56.4667 40.4746 38.15 60.9058 39.6142 59.5729C43.6917 56.0583 57.4146 39.5063 59.9929 23.9896C62.5829 8.48458 49.5338 3.10917 49.5338 3.10917ZM29.6567 63.7175L31.0538 70H38.6342L40.0575 63.7175H29.6567Z" fill="#C9C9D1"/>
</svg>
