<svg width="22" height="22" viewBox="0 0 22 22" fill="none" xmlns="http://www.w3.org/2000/svg">
<rect width="22" height="22" rx="11" fill="#C9C9D1"/>
<path d="M14.676 10.7118L15.1503 10.8699L15.1503 10.8699L14.676 10.7118ZM13.4277 14.4565L12.9534 14.2984L12.9532 14.299L13.4277 14.4565ZM13.167 14.7094L13.3094 15.1887L13.3098 15.1885L13.167 14.7094ZM5.51507 16.9837L5.65742 17.463L5.65752 17.463L5.51507 16.9837ZM5.03019 16.4825L5.50451 16.6407L5.50452 16.6406L5.03019 16.4825ZM7.51486 9.02977L7.98919 9.18791L7.98928 9.18765L7.51486 9.02977ZM7.73764 8.79061L7.54728 8.32827L7.54655 8.32857L7.73764 8.79061ZM11.2674 7.33729L11.4578 7.79963L11.4583 7.79943L11.2674 7.33729ZM11.6953 7.42247L12.0489 7.069L12.0486 7.06867L11.6953 7.42247ZM14.581 10.3095L14.2273 10.6629L14.2274 10.663L14.581 10.3095ZM4.90138 16.3825C4.70612 16.5778 4.70612 16.8943 4.90138 17.0896C5.09665 17.2849 5.41323 17.2849 5.60849 17.0896L4.90138 16.3825ZM9.42488 12.5661L9.77835 12.2125L9.42488 12.5661ZM14.3997 10.1276C14.2045 10.3229 14.2045 10.6395 14.3998 10.8347C14.5951 11.03 14.9117 11.0299 15.1069 10.8346L14.3997 10.1276ZM16.6063 8.62746L16.2527 8.27396L16.2527 8.27397L16.6063 8.62746ZM16.6063 6.77444L16.2526 7.12782L16.2527 7.12794L16.6063 6.77444ZM15.2172 5.38402L15.5709 5.03063L15.5708 5.03054L15.2172 5.38402ZM13.3635 5.38402L13.7171 5.73751L13.7172 5.7375L13.3635 5.38402ZM11.1569 6.8842C10.9617 7.0795 10.9617 7.39608 11.157 7.59131C11.3523 7.78654 11.6689 7.78648 11.8641 7.59118L11.1569 6.8842ZM10.8146 11.1757L11.1681 10.822L10.8146 11.1757ZM14.2016 10.5537L12.9534 14.2984L13.9021 14.6146L15.1503 10.8699L14.2016 10.5537ZM12.9532 14.299C12.9586 14.2827 12.9679 14.2679 12.9802 14.2559L13.6764 14.9738C13.7796 14.8738 13.857 14.7503 13.9023 14.614L12.9532 14.299ZM12.9802 14.2559C12.9926 14.244 13.0076 14.2352 13.0241 14.2302L13.3098 15.1885C13.4475 15.1475 13.5733 15.0738 13.6764 14.9738L12.9802 14.2559ZM13.0245 14.2301L5.37261 16.5045L5.65752 17.463L13.3094 15.1887L13.0245 14.2301ZM5.37272 16.5044C5.39145 16.4989 5.41136 16.4985 5.43026 16.5035L5.17642 17.4707C5.33444 17.5122 5.50081 17.5096 5.65742 17.463L5.37272 16.5044ZM5.43026 16.5035C5.44917 16.5085 5.46635 16.5185 5.47994 16.5326L4.76119 17.2278C4.87478 17.3453 5.0184 17.4293 5.17642 17.4707L5.43026 16.5035ZM5.47994 16.5326C5.49353 16.5466 5.50301 16.5641 5.50734 16.5832L4.5322 16.8048C4.5684 16.9641 4.6476 17.1104 4.76119 17.2278L5.47994 16.5326ZM5.50734 16.5832C5.51167 16.6022 5.51069 16.6221 5.50451 16.6407L4.55587 16.3243C4.50419 16.4793 4.496 16.6454 4.5322 16.8048L5.50734 16.5832ZM5.50452 16.6406L7.98919 9.18791L7.04053 8.87163L4.55586 16.3243L5.50452 16.6406ZM7.98928 9.18765C7.98444 9.2022 7.97653 9.21553 7.96608 9.22675L7.23436 8.54514C7.14703 8.63889 7.0809 8.75033 7.04044 8.87189L7.98928 9.18765ZM7.96608 9.22675C7.95563 9.23796 7.94289 9.2468 7.92873 9.25266L7.54655 8.32857C7.42816 8.37753 7.32168 8.45139 7.23436 8.54514L7.96608 9.22675ZM7.928 9.25296L11.4578 7.79963L11.0771 6.87494L7.54728 8.32827L7.928 9.25296ZM11.4583 7.79943C11.4388 7.80748 11.4173 7.80958 11.3966 7.80546L11.5919 6.82471C11.4189 6.79027 11.2396 6.80782 11.0766 6.87515L11.4583 7.79943ZM11.3966 7.80546C11.3759 7.80134 11.3569 7.79118 11.342 7.77627L12.0486 7.06867C11.9238 6.94403 11.7649 6.85915 11.5919 6.82471L11.3966 7.80546ZM11.3417 7.77594L14.2273 10.6629L14.9346 9.95598L12.0489 7.069L11.3417 7.77594ZM14.2274 10.663C14.2134 10.649 14.2036 10.6314 14.199 10.612L15.1722 10.3822C15.1341 10.2208 15.0518 10.0731 14.9345 9.95587L14.2274 10.663ZM14.199 10.612C14.1944 10.5927 14.1954 10.5725 14.2016 10.5537L15.1503 10.8699C15.2028 10.7125 15.2104 10.5436 15.1722 10.3822L14.199 10.612ZM5.60849 17.0896L9.77844 12.9197L9.07133 12.2126L4.90138 16.3825L5.60849 17.0896ZM15.1069 10.8346L16.9599 8.98095L16.2527 8.27397L14.3997 10.1276L15.1069 10.8346ZM16.9599 8.98096C17.2993 8.64144 17.49 8.18102 17.49 7.70095H16.49C16.49 7.91586 16.4046 8.12197 16.2527 8.27396L16.9599 8.98096ZM17.49 7.70095C17.49 7.22087 17.2993 6.76045 16.9599 6.42094L16.2527 7.12794C16.4046 7.27992 16.49 7.48604 16.49 7.70095H17.49ZM16.96 6.42105L15.5709 5.03063L14.8635 5.73741L16.2526 7.12782L16.96 6.42105ZM15.5708 5.03054C15.4027 4.86234 15.2031 4.72892 14.9834 4.63788L14.6006 5.56173C14.699 5.60248 14.7883 5.66221 14.8636 5.7375L15.5708 5.03054ZM14.9834 4.63788C14.7637 4.54685 14.5282 4.5 14.2904 4.5V5.5C14.3968 5.5 14.5022 5.52097 14.6006 5.56173L14.9834 4.63788ZM14.2904 4.5C14.0526 4.5 13.8171 4.54685 13.5974 4.63788L13.9801 5.56173C14.0785 5.52097 14.1839 5.5 14.2904 5.5V4.5ZM13.5974 4.63788C13.3777 4.72892 13.178 4.86234 13.0099 5.03054L13.7172 5.7375C13.7924 5.66221 13.8818 5.60248 13.9801 5.56173L13.5974 4.63788ZM13.0099 5.03053L11.1569 6.8842L11.8641 7.59118L13.7171 5.73751L13.0099 5.03053ZM11.1681 10.822C11.0304 10.6844 10.8669 10.5752 10.6869 10.5007L10.3045 11.4247C10.3631 11.4489 10.4163 11.4845 10.4612 11.5293L11.1681 10.822ZM10.6869 10.5007C10.507 10.4262 10.3142 10.3879 10.1194 10.388L10.1197 11.388C10.1831 11.3879 10.2459 11.4004 10.3045 11.4247L10.6869 10.5007ZM10.1194 10.388C9.92468 10.388 9.73185 10.4264 9.55195 10.501L9.93485 11.4248C9.99343 11.4005 10.0562 11.388 10.1197 11.388L10.1194 10.388ZM9.55195 10.501C9.37204 10.5755 9.20859 10.6848 9.07092 10.8225L9.77819 11.5295C9.82303 11.4846 9.87626 11.449 9.93485 11.4248L9.55195 10.501ZM9.07092 10.8225C8.93325 10.9603 8.82405 11.1238 8.74957 11.3037L9.67354 11.6862C9.6978 11.6276 9.73336 11.5743 9.77819 11.5295L9.07092 10.8225ZM8.74957 11.3037C8.67509 11.4837 8.63678 11.6765 8.63682 11.8712L9.63682 11.871C9.63681 11.8076 9.64929 11.7448 9.67354 11.6862L8.74957 11.3037ZM8.63682 11.8712C8.63687 12.066 8.67527 12.2588 8.74984 12.4387L9.67363 12.0558C9.64934 11.9972 9.63684 11.9344 9.63682 11.871L8.63682 11.8712ZM8.74984 12.4387C8.82441 12.6186 8.93368 12.7821 9.07141 12.9197L9.77835 12.2125C9.7335 12.1676 9.69791 12.1144 9.67363 12.0558L8.74984 12.4387ZM9.07141 12.9197C9.34959 13.1978 9.72682 13.3539 10.1201 13.3538L10.1199 12.3538C9.9918 12.3539 9.86895 12.303 9.77835 12.2125L9.07141 12.9197ZM10.1201 13.3538C10.5134 13.3537 10.8906 13.1974 11.1686 12.9192L10.4613 12.2123C10.3708 12.3029 10.248 12.3538 10.1199 12.3538L10.1201 13.3538ZM11.1686 12.9192C11.4467 12.6411 11.6028 12.2638 11.6027 11.8705L10.6027 11.8708C10.6027 11.9989 10.5519 12.1217 10.4613 12.2123L11.1686 12.9192ZM11.6027 11.8705C11.6026 11.4772 11.4463 11.1001 11.1681 10.822L10.4612 11.5293C10.5518 11.6199 10.6027 11.7427 10.6027 11.8708L11.6027 11.8705Z" fill="#6B6B6F"/>
</svg>
