<svg width="23" height="22" viewBox="0 0 23 22" fill="none" xmlns="http://www.w3.org/2000/svg">
<path d="M8.48181 20.57C8.34112 20.5106 8.2242 20.4061 8.14951 20.2729C8.07482 20.1397 8.0466 19.9854 8.06931 19.8344L9.32056 11.6875H5.99994C5.89466 11.6903 5.79014 11.6689 5.69445 11.625C5.59875 11.581 5.51443 11.5157 5.448 11.4339C5.38157 11.3522 5.33479 11.2563 5.31129 11.1537C5.28778 11.051 5.28818 10.9444 5.31244 10.8419L7.37494 1.90438C7.41123 1.75056 7.4994 1.61395 7.62462 1.51753C7.74984 1.42111 7.90445 1.37078 8.06244 1.375H14.9374C15.0401 1.37465 15.1416 1.39732 15.2344 1.44134C15.3272 1.48536 15.409 1.54961 15.4737 1.62938C15.5393 1.71004 15.5858 1.80454 15.6096 1.90576C15.6334 2.00698 15.634 2.11229 15.6112 2.21375L14.4218 7.5625H17.6874C17.8163 7.56224 17.9426 7.5982 18.052 7.66627C18.1614 7.73435 18.2495 7.83179 18.3062 7.9475C18.3555 8.05856 18.3744 8.18069 18.3611 8.30145C18.3478 8.42222 18.3028 8.53731 18.2306 8.635L9.29306 20.3225C9.23266 20.412 9.15201 20.4861 9.05764 20.5386C8.96328 20.5912 8.85786 20.6208 8.74994 20.625C8.65796 20.6231 8.5671 20.6045 8.48181 20.57Z" fill="#C9C9D1"/>
</svg>
