<svg width="23" height="22" viewBox="0 0 23 22" fill="none" xmlns="http://www.w3.org/2000/svg">
<path d="M5.61034 1.9012C5.72704 1.95731 5.82552 2.04525 5.89445 2.15487C5.96337 2.2645 5.99993 2.39137 5.99992 2.52086C5.99992 3.2817 6.28592 3.71986 6.64434 4.25336L6.67092 4.29186C6.97525 4.7447 7.37492 5.33778 7.37492 6.18753C7.37492 7.0547 6.93767 7.8192 6.27125 8.27295C6.44664 8.41961 6.60125 8.60081 6.73509 8.81653C7.17142 9.52236 7.37492 10.6013 7.37492 12.1504C7.37492 13.7198 7.16409 15.6044 6.82034 17.1096C6.64984 17.8576 6.43809 18.5479 6.186 19.0658C6.06754 19.3238 5.90983 19.5619 5.7185 19.7716C5.52967 19.965 5.23909 20.1713 4.85409 20.1713C4.46909 20.1713 4.1785 19.965 3.99059 19.7716C3.79925 19.5619 3.64155 19.3238 3.52309 19.0658C3.27009 18.5469 3.05834 17.8576 2.88784 17.1087C2.52995 15.4796 2.34407 13.8174 2.33325 12.1495C2.33325 10.6004 2.53675 9.52236 2.97309 8.81653C3.09704 8.61127 3.25372 8.42765 3.43692 8.27295C3.0968 8.04174 2.81841 7.73083 2.62604 7.36734C2.43366 7.00384 2.33315 6.59879 2.33325 6.18753C2.33325 5.8502 2.33325 5.26995 2.68434 4.52103C3.02809 3.7877 3.68167 2.94528 4.8825 1.9837C4.98371 1.90274 5.10574 1.85204 5.23452 1.83744C5.36329 1.82285 5.49358 1.84495 5.61034 1.9012ZM9.66659 13.6739C9.18105 13.592 8.70872 13.4453 8.26225 13.2376C8.28181 12.8642 8.29159 12.5018 8.29159 12.1504C8.29159 11.7783 8.27997 11.4226 8.25675 11.0834C8.66284 11.418 9.14225 11.6664 9.66659 11.8012V9.62503C9.66659 9.26036 9.81145 8.91062 10.0693 8.65276C10.3272 8.3949 10.6769 8.25003 11.0416 8.25003H14.2499C14.25 7.55061 14.05 6.86576 13.6736 6.27626C13.2972 5.68677 12.7601 5.21723 12.1255 4.92304C11.491 4.62885 10.7855 4.52228 10.0924 4.61591C9.3993 4.70953 8.74741 4.99945 8.21367 5.45145C8.05509 4.70528 7.68659 4.15895 7.451 3.8097L7.41434 3.7547C8.23792 3.17412 9.20517 2.83096 10.2105 2.76267C11.2158 2.69438 12.2206 2.90359 13.1151 3.36745C14.0097 3.83132 14.7596 4.53202 15.283 5.39305C15.8064 6.25409 16.0833 7.24238 16.0833 8.25003H19.2916C19.6563 8.25003 20.006 8.3949 20.2639 8.65276C20.5217 8.91062 20.6666 9.26036 20.6666 9.62503V17.875C20.6666 18.2397 20.5217 18.5894 20.2639 18.8473C20.006 19.1052 19.6563 19.25 19.2916 19.25H11.0416C10.6769 19.25 10.3272 19.1052 10.0693 18.8473C9.81145 18.5894 9.66659 18.2397 9.66659 17.875V13.6739ZM11.4999 13.6739V17.4167H18.8333V10.0834H15.7707C15.4428 11.008 14.874 11.8283 14.1231 12.4595C13.3721 13.0907 12.4662 13.51 11.499 13.6739M13.7595 10.0834H11.4999V11.8012C11.9718 11.6794 12.4147 11.4648 12.8027 11.1698C13.1907 10.8748 13.5159 10.5055 13.7595 10.0834Z" fill="#C9C9D1"/>
</svg>
