<svg width="19" height="20" viewBox="0 0 19 20" fill="none" xmlns="http://www.w3.org/2000/svg">
<g id="mdi:github">
<path id="Vector" d="M9.375 2.3125C8.34905 2.3125 7.33314 2.51458 6.38528 2.90719C5.43743 3.29981 4.57619 3.87527 3.85073 4.60073C2.3856 6.06586 1.5625 8.053 1.5625 10.125C1.5625 13.5781 3.80469 16.5078 6.90625 17.5469C7.29687 17.6094 7.42187 17.3672 7.42187 17.1562V15.8359C5.25781 16.3047 4.79687 14.7891 4.79687 14.7891C4.4375 13.8828 3.92969 13.6406 3.92969 13.6406C3.21875 13.1562 3.98437 13.1719 3.98437 13.1719C4.76562 13.2266 5.17969 13.9766 5.17969 13.9766C5.85938 15.1641 7.00781 14.8125 7.45312 14.625C7.52344 14.1172 7.72656 13.7734 7.94531 13.5781C6.21094 13.3828 4.39062 12.7109 4.39062 9.73437C4.39062 8.86719 4.6875 8.17187 5.19531 7.61719C5.11719 7.42187 4.84375 6.60938 5.27344 5.55469C5.27344 5.55469 5.92969 5.34375 7.42187 6.35156C8.03906 6.17969 8.71094 6.09375 9.375 6.09375C10.0391 6.09375 10.7109 6.17969 11.3281 6.35156C12.8203 5.34375 13.4766 5.55469 13.4766 5.55469C13.9062 6.60938 13.6328 7.42187 13.5547 7.61719C14.0625 8.17187 14.3594 8.86719 14.3594 9.73437C14.3594 12.7187 12.5312 13.375 10.7891 13.5703C11.0703 13.8125 11.3281 14.2891 11.3281 15.0156V17.1562C11.3281 17.3672 11.4531 17.6172 11.8516 17.5469C14.9531 16.5 17.1875 13.5781 17.1875 10.125C17.1875 9.09905 16.9854 8.08314 16.5928 7.13528C16.2002 6.18743 15.6247 5.32619 14.8993 4.60073C14.1738 3.87527 13.3126 3.29981 12.3647 2.90719C11.4169 2.51458 10.401 2.3125 9.375 2.3125Z" fill="#C9C9D1"/>
</g>
</svg>
