<svg width="31" height="30" viewBox="0 0 31 30" fill="none" xmlns="http://www.w3.org/2000/svg">
<path d="M0.493261 12.6847C0.443261 11.9357 0.633261 11.1607 1.08526 10.3767C2.19326 8.45269 5.08926 7.82869 7.47126 9.60669L8.14726 10.1117V8.48569C8.14726 7.12569 8.42826 5.99769 9.08326 5.19569C9.76826 4.35569 10.7263 4.03269 11.7113 4.03269C12.6793 4.03269 13.6673 4.33569 14.4003 5.14269L14.4213 5.16669C15.0993 4.34969 16.0413 4.03269 17.0113 4.03269C17.9733 4.03269 18.9623 4.33569 19.7013 5.13769C19.7134 5.15091 19.7254 5.16425 19.7373 5.17769C20.4213 4.35169 21.3733 4.03269 22.3513 4.03269C22.4503 4.03269 22.5483 4.03569 22.6473 4.04269V3.67269C22.6473 2.66569 23.2473 1.75969 23.8953 1.15569C24.5483 0.547693 25.4773 0.0326939 26.4353 0.0326939C27.3013 0.0326939 28.2913 0.379694 29.0733 1.03269C29.5233 1.40191 29.8849 1.86725 30.1314 2.39453C30.378 2.9218 30.5034 3.49763 30.4983 4.07969V15.7667C30.4983 18.7857 29.9983 22.0677 28.3923 24.6267C26.7413 27.2567 23.9843 29.0167 19.7803 29.0167C15.6833 29.0167 11.2253 27.0617 9.22026 23.4737L9.02826 23.1317C7.45526 20.3107 6.27226 18.1917 3.65826 16.6977L3.65626 16.6957C2.97626 16.3057 1.88926 15.6117 1.18526 14.5917C0.822261 14.0657 0.542261 13.4277 0.493261 12.6847ZM20.7873 11.8287V11.8457C20.7903 12.5877 20.9993 13.1457 21.2803 13.4957C21.5503 13.8337 21.9083 14.0167 22.3513 14.0167C22.9483 14.0167 23.3433 13.8617 23.5933 13.6117C23.8433 13.3637 24.1073 12.8617 24.1073 11.8287V8.48569C24.1073 7.37769 23.8363 6.79069 23.5603 6.48769C23.2963 6.19769 22.9053 6.03269 22.3513 6.03269C21.8153 6.03269 21.4913 6.19269 21.2733 6.45969C21.0283 6.75969 20.7903 7.35269 20.7873 8.46469V8.48469V11.8287ZM18.7873 8.48569V8.46569C18.7843 7.37769 18.5093 6.79569 18.2293 6.49269C17.9573 6.19669 17.5573 6.03269 17.0113 6.03269C16.4833 6.03269 16.1653 6.19069 15.9513 6.45669C15.7053 6.75869 15.4673 7.35869 15.4673 8.48569V11.8307C15.4673 12.5817 15.6773 13.1457 15.9573 13.4997C16.2243 13.8367 16.5773 14.0167 17.0113 14.0167C17.6003 14.0167 18.0043 13.8627 18.2633 13.6067C18.5163 13.3567 18.7833 12.8597 18.7873 11.8467V11.8287V8.48569ZM22.3513 16.0167C21.3313 16.0167 20.4483 15.5857 19.8213 14.8687C19.497 15.2345 19.0943 15.5223 18.6433 15.7107C20.3473 16.3427 22.1643 17.4007 23.6933 19.1677C23.8668 19.3685 23.9536 19.63 23.9343 19.8947C23.9151 20.1594 23.7915 20.4056 23.5908 20.5792C23.39 20.7528 23.1285 20.8395 22.8638 20.8203C22.5991 20.8011 22.3528 20.6775 22.1793 20.4767C20.3693 18.3827 18.0433 17.4617 16.1253 17.0667C15.3366 16.9051 14.5351 16.8148 13.7303 16.7967C13.4274 16.7903 13.1245 16.797 12.8223 16.8167H12.8163C12.569 16.8413 12.3215 16.7731 12.1218 16.6252C11.9222 16.4773 11.7847 16.2604 11.7363 16.0167H11.7113C10.6333 16.0167 9.70926 15.5357 9.07726 14.7447C8.60226 14.1497 8.30826 13.4047 8.19726 12.5887C8.12226 12.5507 8.04126 12.5047 7.95326 12.4487C7.76326 12.3247 7.47726 12.1087 6.98026 11.7367L6.27526 11.2087C4.68926 10.0247 3.23026 10.6597 2.81826 11.3747C2.53526 11.8657 2.46826 12.2527 2.48826 12.5527C2.50826 12.8587 2.62426 13.1567 2.83026 13.4557C3.26426 14.0847 4.01226 14.5927 4.65226 14.9617C7.76026 16.7387 9.19226 19.3127 10.7103 22.0397L10.9653 22.4977C12.5223 25.2837 16.1893 27.0167 19.7803 27.0167C23.3253 27.0167 25.4283 25.5877 26.6983 23.5637C28.0153 21.4657 28.4983 18.6237 28.4983 15.7667V4.07869C28.4983 3.40569 28.2053 2.91269 27.7913 2.56769C27.3523 2.20069 26.8113 2.03269 26.4363 2.03269C26.1553 2.03269 25.6903 2.21769 25.2583 2.61969C24.8223 3.02569 24.6483 3.43969 24.6483 3.67269V4.77469C24.7885 4.88672 24.9196 5.00978 25.0403 5.14269C25.7613 5.93669 26.1073 7.07569 26.1073 8.48569V11.8287C26.1073 13.1877 25.7553 14.2787 25.0073 15.0267C24.2603 15.7727 23.2773 16.0167 22.3513 16.0167ZM13.4673 11.8307V8.48569C13.4673 7.37769 13.1963 6.79069 12.9203 6.48769C12.6563 6.19769 12.2653 6.03269 11.7113 6.03269C11.1743 6.03269 10.8513 6.19269 10.6333 6.45969C10.3863 6.76169 10.1473 7.35969 10.1473 8.48569V11.8287C10.1473 12.5787 10.3573 13.1427 10.6403 13.4957C10.9103 13.8337 11.2683 14.0167 11.7113 14.0167C12.2553 14.0167 12.6623 13.8447 12.9373 13.5577C13.2133 13.2697 13.4673 12.7467 13.4673 11.8307Z" fill="#BABE99"/>
</svg>
