<svg width="23" height="22" viewBox="0 0 23 22" fill="none" xmlns="http://www.w3.org/2000/svg">
<path fill-rule="evenodd" clip-rule="evenodd" d="M8.97909 2.75C5.30875 2.75 2.33325 5.7255 2.33325 9.39583C2.33325 17.6458 13.3333 19.25 13.3333 19.25V16.0417H14.0208C17.6911 16.0417 20.6666 13.0662 20.6666 9.39583C20.6666 5.7255 17.6911 2.75 14.0208 2.75H8.97909ZM11.4999 10.7708C11.8038 10.7708 12.0953 10.6501 12.3101 10.4352C12.525 10.2203 12.6458 9.92889 12.6458 9.625C12.6458 9.32111 12.525 9.02966 12.3101 8.81477C12.0953 8.59989 11.8038 8.47917 11.4999 8.47917C11.196 8.47917 10.9046 8.59989 10.6897 8.81477C10.4748 9.02966 10.3541 9.32111 10.3541 9.625C10.3541 9.92889 10.4748 10.2203 10.6897 10.4352C10.9046 10.6501 11.196 10.7708 11.4999 10.7708ZM16.3124 9.625C16.3124 9.92889 16.1917 10.2203 15.9768 10.4352C15.7619 10.6501 15.4705 10.7708 15.1666 10.7708C14.8627 10.7708 14.5712 10.6501 14.3564 10.4352C14.1415 10.2203 14.0208 9.92889 14.0208 9.625C14.0208 9.32111 14.1415 9.02966 14.3564 8.81477C14.5712 8.59989 14.8627 8.47917 15.1666 8.47917C15.4705 8.47917 15.7619 8.59989 15.9768 8.81477C16.1917 9.02966 16.3124 9.32111 16.3124 9.625ZM7.83325 10.7708C8.13715 10.7708 8.42859 10.6501 8.64348 10.4352C8.85836 10.2203 8.97909 9.92889 8.97909 9.625C8.97909 9.32111 8.85836 9.02966 8.64348 8.81477C8.42859 8.59989 8.13715 8.47917 7.83325 8.47917C7.52936 8.47917 7.23791 8.59989 7.02303 8.81477C6.80814 9.02966 6.68742 9.32111 6.68742 9.625C6.68742 9.92889 6.80814 10.2203 7.02303 10.4352C7.23791 10.6501 7.52936 10.7708 7.83325 10.7708Z" fill="#C9C9D1"/>
</svg>
