<svg width="23" height="22" viewBox="0 0 23 22" fill="none" xmlns="http://www.w3.org/2000/svg">
<path d="M3.52138 18.8851L9.35505 13.0515M16.7012 10.4573L14.955 15.6961C14.9271 15.78 14.8794 15.856 14.8159 15.9176C14.7524 15.9792 14.6749 16.0246 14.5901 16.0499L3.8853 19.2316C3.78886 19.2603 3.6864 19.2619 3.58909 19.2364C3.49178 19.2108 3.40334 19.1591 3.3334 19.0868C3.26345 19.0145 3.21468 18.9244 3.19238 18.8263C3.17009 18.7282 3.17513 18.6258 3.20696 18.5304L6.68296 8.10422C6.70788 8.02936 6.7486 7.96074 6.80238 7.90301C6.85616 7.84528 6.92172 7.79979 6.99463 7.76964L11.9327 5.73647C12.0331 5.69501 12.1435 5.6842 12.2501 5.70541C12.3566 5.72662 12.4544 5.77889 12.5313 5.85564L16.5683 9.89447C16.6405 9.96669 16.6912 10.0576 16.7147 10.157C16.7382 10.2564 16.7335 10.3604 16.7012 10.4573Z" stroke="#EDEDF6" stroke-width="1.5" stroke-linecap="round" stroke-linejoin="round"/>
<path d="M16.8095 10.1347L19.4018 7.54141C19.7455 7.19761 19.9386 6.73138 19.9386 6.24524C19.9386 5.75911 19.7455 5.29288 19.4018 4.94908L17.4585 3.00391C17.2882 2.83359 17.0861 2.69848 16.8636 2.6063C16.6411 2.51412 16.4027 2.46667 16.1618 2.46667C15.921 2.46667 15.6826 2.51412 15.4601 2.6063C15.2376 2.69848 15.0355 2.83359 14.8652 3.00391L12.2729 5.59716M11.2994 11.1063C11.1717 10.9787 11.0201 10.8774 10.8532 10.8083C10.6863 10.7393 10.5075 10.7038 10.3269 10.7038C10.1464 10.7038 9.96755 10.7394 9.80073 10.8086C9.63391 10.8777 9.48234 10.9791 9.35468 11.1068C9.22702 11.2345 9.12577 11.3861 9.0567 11.553C8.98763 11.7198 8.95211 11.8987 8.95215 12.0792C8.95219 12.2598 8.9878 12.4386 9.05695 12.6054C9.12609 12.7723 9.22742 12.9238 9.35514 13.0515C9.61308 13.3093 9.96289 13.4541 10.3276 13.454C10.6923 13.4539 11.042 13.309 11.2998 13.051C11.5577 12.7931 11.7025 12.4433 11.7024 12.0786C11.7023 11.7139 11.5573 11.3641 11.2994 11.1063Z" stroke="#EDEDF6" stroke-width="1.5" stroke-linecap="round" stroke-linejoin="round"/>
</svg>
