<svg width="70" height="70" viewBox="0 0 70 70" fill="none" xmlns="http://www.w3.org/2000/svg">
<path d="M17.5 8.75C15.1794 8.75 12.9538 9.67187 11.3128 11.3128C9.67187 12.9538 8.75 15.1794 8.75 17.5V52.5C8.75 54.8206 9.67187 57.0462 11.3128 58.6872C12.9538 60.3281 15.1794 61.25 17.5 61.25H52.5C54.8206 61.25 57.0462 60.3281 58.6872 58.6872C60.3281 57.0462 61.25 54.8206 61.25 52.5V17.5C61.25 15.1794 60.3281 12.9538 58.6872 11.3128C57.0462 9.67187 54.8206 8.75 52.5 8.75H17.5ZM38.8908 46.8271C40.9908 48.5188 43.085 49.35 45.1792 49.3296C46.4625 49.3296 47.4483 49.0962 48.1308 48.6237C48.4495 48.4169 48.7088 48.1306 48.8832 47.793C49.0576 47.4555 49.1411 47.0784 49.1254 46.6987C49.1297 46.2847 49.043 45.8748 48.8717 45.4979C48.7004 45.1209 48.4485 44.7861 48.1338 44.5171C47.4483 43.9192 46.1533 43.3213 44.2487 42.7204C41.9621 42.0583 40.1946 41.2038 38.955 40.1538C37.7358 39.1038 37.1175 37.6396 37.0942 35.7583C37.0942 33.9821 37.8642 32.4975 39.4042 31.2987C40.9033 30.1029 42.8167 29.5021 45.15 29.5021C48.3992 29.5021 51.0096 30.2925 52.9754 31.8763L50.7296 35.3733C49.921 34.7444 48.9933 34.286 48.0025 34.0258C47.1121 33.728 46.182 33.5658 45.2433 33.5446C44.135 33.5446 43.2454 33.7488 42.5804 34.1542C41.9183 34.5625 41.5887 35.0963 41.5887 35.7583C41.5887 36.4875 41.9942 37.1058 42.805 37.6192C43.6217 38.1121 45.01 38.6575 46.9758 39.2554C49.35 39.9613 51.0417 40.9033 52.045 42.0788C53.0513 43.2542 53.5529 44.7533 53.5529 46.5704C53.5529 48.4313 52.8383 50.0354 51.4033 51.3829C49.9917 52.71 47.9383 53.4042 45.2433 53.4683C41.7142 53.4683 38.7625 52.4096 36.3883 50.2921L38.8908 46.8271ZM22.7617 48.6879C23.4471 49.1167 24.2696 49.3296 25.2321 49.3296C26.2383 49.3296 27.0696 49.0408 27.7346 48.4633C28.3967 47.8654 28.7292 46.8271 28.7292 45.3512V29.8871H33.0604V46.1854C32.9963 48.7083 32.27 50.5283 30.8787 51.6396C30.1196 52.2851 29.2347 52.7658 28.28 53.0513C27.3958 53.3207 26.4773 53.4611 25.5529 53.4683C23.9487 53.4683 22.5254 53.1912 21.2858 52.6342C19.9587 52.0363 18.8475 50.9775 17.9492 49.4579L20.965 46.9875C21.5192 47.7371 22.12 48.3029 22.7617 48.6879Z" fill="#C9C9D1"/>
</svg>
