<svg width="19" height="20" viewBox="0 0 19 20" fill="none" xmlns="http://www.w3.org/2000/svg">
<g id="mdi:linkedin">
<path id="Vector" d="M14.8438 2.84375C15.2582 2.84375 15.6556 3.00837 15.9486 3.3014C16.2416 3.59442 16.4062 3.99185 16.4062 4.40625V15.3438C16.4062 15.7582 16.2416 16.1556 15.9486 16.4486C15.6556 16.7416 15.2582 16.9062 14.8438 16.9062H3.90625C3.49185 16.9062 3.09442 16.7416 2.8014 16.4486C2.50837 16.1556 2.34375 15.7582 2.34375 15.3438V4.40625C2.34375 3.99185 2.50837 3.59442 2.8014 3.3014C3.09442 3.00837 3.49185 2.84375 3.90625 2.84375H14.8438ZM14.4531 14.9531V10.8125C14.4531 10.137 14.1848 9.48922 13.7072 9.01159C13.2295 8.53396 12.5817 8.26562 11.9062 8.26562C11.2422 8.26562 10.4688 8.67188 10.0938 9.28125V8.41406H7.91406V14.9531H10.0938V11.1016C10.0938 10.5 10.5781 10.0078 11.1797 10.0078C11.4698 10.0078 11.748 10.123 11.9531 10.3282C12.1582 10.5333 12.2734 10.8115 12.2734 11.1016V14.9531H14.4531ZM5.375 7.1875C5.7231 7.1875 6.05694 7.04922 6.30308 6.80308C6.54922 6.55694 6.6875 6.2231 6.6875 5.875C6.6875 5.14844 6.10156 4.55469 5.375 4.55469C5.02483 4.55469 4.689 4.69379 4.4414 4.9414C4.19379 5.189 4.05469 5.52483 4.05469 5.875C4.05469 6.60156 4.64844 7.1875 5.375 7.1875ZM6.46094 14.9531V8.41406H4.29688V14.9531H6.46094Z" fill="#C9C9D1"/>
</g>
</svg>
