<svg width="23" height="22" viewBox="0 0 23 22" fill="none" xmlns="http://www.w3.org/2000/svg">
<path d="M16.0833 15.5834C14.9833 15.5834 14.0131 15.2359 13.1728 14.5411C12.3326 13.8463 11.8055 12.9715 11.5916 11.9167H6.73325C6.54992 12.3292 6.26728 12.6616 5.88534 12.914C5.50339 13.1664 5.08325 13.2923 4.62492 13.2917C3.98325 13.2917 3.44089 13.0702 2.99784 12.6271C2.55478 12.184 2.33325 11.6417 2.33325 11C2.33325 10.3584 2.55478 9.81599 2.99784 9.37294C3.44089 8.92988 3.98325 8.70835 4.62492 8.70835C5.08325 8.70835 5.50339 8.83455 5.88534 9.08694C6.26728 9.33933 6.54992 9.67147 6.73325 10.0834H11.5916C11.8055 9.02919 12.3326 8.15438 13.1728 7.45894C14.0131 6.76349 14.9833 6.41608 16.0833 6.41669C17.3513 6.41669 18.4324 6.86372 19.3264 7.75777C20.2205 8.65183 20.6672 9.73258 20.6666 11C20.666 12.2675 20.2189 13.3485 19.3255 14.2432C18.4321 15.1379 17.3513 15.5846 16.0833 15.5834ZM16.0833 13.75C16.8471 13.75 17.4964 13.4827 18.0312 12.9479C18.5659 12.4132 18.8333 11.7639 18.8333 11C18.8333 10.2361 18.5659 9.58683 18.0312 9.0521C17.4964 8.51738 16.8471 8.25002 16.0833 8.25002C15.3194 8.25002 14.6701 8.51738 14.1353 9.0521C13.6006 9.58683 13.3333 10.2361 13.3333 11C13.3333 11.7639 13.6006 12.4132 14.1353 12.9479C14.6701 13.4827 15.3194 13.75 16.0833 13.75Z" fill="#C9C9D1"/>
</svg>
