<svg width="23" height="22" viewBox="0 0 23 22" fill="none" xmlns="http://www.w3.org/2000/svg">
<path d="M12.4167 2.75002C15.9917 2.75002 18.8333 5.59169 18.8333 9.16669C18.8333 11.7334 17.3667 13.9334 15.1667 14.9417V19.25H8.74999V16.5H7.83333C6.82499 16.5 5.99999 15.675 5.99999 14.6667V11.9167H4.62499C4.25833 11.9167 3.98333 11.4584 4.25833 11.1834L5.99999 8.89169C6.18333 5.40835 8.93333 2.75002 12.4167 2.75002ZM12.4167 0.916687C8.19999 0.916687 4.71666 4.03335 4.25833 8.15835L2.79166 10.0834C2.24166 10.8167 2.24166 11.7334 2.60833 12.4667C2.97499 13.1084 3.52499 13.5667 4.16666 13.6584V14.6667C4.16666 16.4084 5.35833 17.7834 6.91666 18.2417V21.0834H17V16.0417C19.2917 14.4834 20.6667 12.0084 20.6667 9.16669C20.6667 4.58335 17 0.916687 12.4167 0.916687ZM9.66666 9.16669C9.11666 9.16669 8.74999 8.80002 8.74999 8.25002C8.74999 7.70002 9.11666 7.33335 9.66666 7.33335C10.2167 7.33335 10.5833 7.70002 10.5833 8.25002C10.5833 8.80002 10.2167 9.16669 9.66666 9.16669ZM12.4167 9.16669C11.8667 9.16669 11.5 8.80002 11.5 8.25002C11.5 7.70002 11.8667 7.33335 12.4167 7.33335C12.9667 7.33335 13.3333 7.70002 13.3333 8.25002C13.3333 8.80002 12.9667 9.16669 12.4167 9.16669ZM15.1667 9.16669C14.7083 9.16669 14.25 8.80002 14.25 8.25002C14.25 7.70002 14.7083 7.33335 15.1667 7.33335C15.625 7.33335 16.0833 7.70002 16.0833 8.25002C16.0833 8.80002 15.625 9.16669 15.1667 9.16669Z" fill="#C9C9D1"/>
</svg>
