<svg width="23" height="22" viewBox="0 0 23 22" fill="none" xmlns="http://www.w3.org/2000/svg">
<path d="M15.4966 12.8333C15.5699 12.2283 15.6249 11.6233 15.6249 11C15.6249 10.3766 15.5699 9.77165 15.4966 9.16665H18.5949C18.7416 9.75331 18.8333 10.3675 18.8333 11C18.8333 11.6325 18.7416 12.2466 18.5949 12.8333M13.8741 17.93C14.4241 16.9125 14.8458 15.8125 15.1391 14.6666H17.8433C16.9552 16.1959 15.5462 17.3543 13.8741 17.93ZM13.6449 12.8333H9.35492C9.26325 12.2283 9.20825 11.6233 9.20825 11C9.20825 10.3766 9.26325 9.76248 9.35492 9.16665H13.6449C13.7274 9.76248 13.7916 10.3766 13.7916 11C13.7916 11.6233 13.7274 12.2283 13.6449 12.8333ZM11.4999 18.2966C10.7391 17.1966 10.1249 15.9775 9.74909 14.6666H13.2508C12.8749 15.9775 12.2608 17.1966 11.4999 18.2966ZM7.83325 7.33331H5.15659C6.03534 5.79976 7.44336 4.63945 9.11659 4.06998C8.56659 5.08748 8.15409 6.18748 7.83325 7.33331ZM5.15659 14.6666H7.83325C8.15409 15.8125 8.56659 16.9125 9.11659 17.93C7.44666 17.3546 6.04052 16.1958 5.15659 14.6666ZM4.40492 12.8333C4.25825 12.2466 4.16659 11.6325 4.16659 11C4.16659 10.3675 4.25825 9.75331 4.40492 9.16665H7.50325C7.42992 9.77165 7.37492 10.3766 7.37492 11C7.37492 11.6233 7.42992 12.2283 7.50325 12.8333M11.4999 3.69415C12.2608 4.79415 12.8749 6.02248 13.2508 7.33331H9.74909C10.1249 6.02248 10.7391 4.79415 11.4999 3.69415ZM17.8433 7.33331H15.1391C14.8518 6.19812 14.4269 5.10224 13.8741 4.06998C15.5608 4.64748 16.9633 5.81165 17.8433 7.33331ZM11.4999 1.83331C6.43075 1.83331 2.33325 5.95831 2.33325 11C2.33325 13.4311 3.29902 15.7627 5.01811 17.4818C5.86931 18.333 6.87984 19.0082 7.99199 19.4689C9.10414 19.9295 10.2961 20.1666 11.4999 20.1666C13.9311 20.1666 16.2626 19.2009 17.9817 17.4818C19.7008 15.7627 20.6666 13.4311 20.6666 11C20.6666 9.7962 20.4295 8.6042 19.9688 7.49205C19.5081 6.3799 18.8329 5.36937 17.9817 4.51817C17.1305 3.66696 16.12 2.99175 15.0079 2.53108C13.8957 2.07042 12.7037 1.83331 11.4999 1.83331Z" fill="#EDEDF6"/>
</svg>
