<svg width="88" height="70" viewBox="0 0 88 70" fill="none" xmlns="http://www.w3.org/2000/svg">
<g clip-path="url(#clip0_269_152)">
<path d="M43.2441 61.7969C42.957 61.7969 42.6699 61.7149 42.4102 61.5782L39.7852 60.0196C39.3887 59.8008 39.5801 59.7188 39.7168 59.6778C40.2363 59.5 40.3457 59.459 40.9062 59.1309C40.9609 59.1035 41.043 59.1172 41.0977 59.1446L43.1211 60.3477C43.1895 60.3887 43.2988 60.3887 43.3672 60.3477L51.2695 55.7813C51.3379 55.7403 51.3926 55.6582 51.3926 55.5625V46.4434C51.3926 46.3477 51.3516 46.2657 51.2695 46.2246L43.3672 41.6719C43.2988 41.6309 43.2031 41.6309 43.1211 41.6719L35.2188 46.2246C35.1367 46.2657 35.0957 46.3614 35.0957 46.4434V55.5625C35.0957 55.6446 35.1504 55.7266 35.2188 55.7676L37.3789 57.0117C38.5547 57.5996 39.2793 56.9024 39.2793 56.2188V47.209C39.2793 47.086 39.375 46.9766 39.5117 46.9766H40.5098C40.6328 46.9766 40.7422 47.0723 40.7422 47.209V56.2188C40.7422 57.791 39.8945 58.6797 38.4043 58.6797C37.9531 58.6797 37.584 58.6797 36.5859 58.1875L34.5078 56.9981C34.002 56.6973 33.6738 56.1504 33.6738 55.5625V46.4434C33.6738 45.8555 33.9883 45.295 34.5078 45.0078L42.4102 40.4414C42.916 40.1543 43.5723 40.1543 44.0645 40.4414L51.9668 45.0078C52.4727 45.3086 52.8008 45.8555 52.8008 46.4434V55.5625C52.8008 56.1504 52.4863 56.711 51.9668 56.9981L44.0645 61.5645C43.832 61.7149 43.5449 61.7969 43.2441 61.7969ZM49.6289 52.8008C49.6289 51.0918 48.4805 50.6407 46.0469 50.3125C43.5859 49.9844 43.3398 49.8203 43.3398 49.2461C43.3398 48.7676 43.5449 48.1387 45.3633 48.1387C46.9902 48.1387 47.5918 48.4942 47.8379 49.5879C47.8652 49.6973 47.9473 49.7657 48.0566 49.7657H49.082C49.1504 49.7657 49.2051 49.7383 49.2461 49.6973C49.2871 49.6426 49.3145 49.5879 49.3008 49.5196C49.1367 47.6328 47.8926 46.7578 45.3633 46.7578C43.1074 46.7578 41.7676 47.7149 41.7676 49.3008C41.7676 51.0371 43.1074 51.502 45.2676 51.7207C47.8516 51.9805 48.0566 52.3496 48.0566 52.8555C48.0566 53.7442 47.3457 54.1133 45.6777 54.1133C43.5859 54.1133 43.1211 53.5938 42.9707 52.5547C42.957 52.4453 42.8613 52.3633 42.7383 52.3633H41.7129C41.5898 52.3633 41.4805 52.459 41.4805 52.5957C41.4805 53.9219 42.2051 55.5078 45.6641 55.5078C48.1934 55.5078 49.6289 54.5235 49.6289 52.8008ZM57.0801 45.9512C57.0801 46.7852 56.3965 47.4688 55.5625 47.4688C54.7285 47.4688 54.0449 46.7852 54.0449 45.9512C54.0449 45.0899 54.7559 44.4336 55.5625 44.4336C56.3828 44.4199 57.0801 45.0899 57.0801 45.9512ZM56.834 45.9512C56.834 45.2403 56.2598 44.6797 55.5488 44.6797C54.8516 44.6797 54.2773 45.2403 54.2773 45.9512C54.2773 46.6621 54.8516 47.2364 55.5488 47.2364C56.2598 47.2227 56.834 46.6485 56.834 45.9512ZM56.2188 46.7989H55.8633C55.8496 46.7168 55.7949 46.2793 55.7949 46.2657C55.7676 46.1699 55.7402 46.1153 55.6172 46.1153H55.3164V46.7989H54.9883V45.0899H55.5762C55.7812 45.0899 56.1777 45.0899 56.1777 45.541C56.1777 45.8555 55.9727 45.9239 55.8496 45.9649C56.082 45.9785 56.0957 46.1289 56.1367 46.3477C56.1504 46.4844 56.1777 46.7168 56.2188 46.7989ZM55.8359 45.5957C55.8359 45.3633 55.6719 45.3633 55.5898 45.3633H55.3164V45.8418H55.5762C55.7949 45.8418 55.8359 45.6914 55.8359 45.5957ZM18.7715 26.1133C18.7715 25.7442 18.5801 25.416 18.2656 25.2383L9.88477 20.4121C9.74805 20.3301 9.58398 20.2891 9.41992 20.2754H9.33789C9.17383 20.2754 9.02344 20.3301 8.87305 20.4121L0.505859 25.2383C0.191406 25.416 0 25.7578 0 26.1133L0.0136719 39.1016C0.0136719 39.2793 0.109375 39.4434 0.259766 39.5391C0.410156 39.6348 0.601562 39.6348 0.765625 39.5391L5.74219 36.6817C6.05664 36.4903 6.24805 36.1621 6.24805 35.8067V29.7364C6.24805 29.3809 6.43945 29.0391 6.75391 28.8614L8.87305 27.6446C9.03711 27.5489 9.20117 27.5078 9.37891 27.5078C9.55664 27.5078 9.73438 27.5489 9.88477 27.6446L12.0039 28.8614C12.3184 29.0391 12.5098 29.3809 12.5098 29.7364V35.8067C12.5098 36.1621 12.7012 36.5039 13.0156 36.6817L17.9922 39.5391C18.1426 39.6348 18.3477 39.6348 18.498 39.5391C18.6484 39.4571 18.7441 39.2793 18.7441 39.1016L18.7715 26.1133ZM64.5996 11.9356V36.0528C64.5996 36.4082 64.4082 36.75 64.0938 36.9278L55.7129 41.7676C55.3984 41.9453 55.0156 41.9453 54.7012 41.7676L46.3203 36.9278C46.0059 36.75 45.8145 36.4082 45.8145 36.0528V26.3731C45.8145 26.0176 46.0059 25.6758 46.3203 25.4981L54.7012 20.6582C55.0156 20.4805 55.3984 20.4805 55.7129 20.6582L57.8047 21.8614C58.0371 21.9981 58.3379 21.8203 58.3379 21.5606V8.70901C58.3379 8.3262 58.748 8.08011 59.0898 8.27151L64.0801 11.0606C64.3945 11.2246 64.5996 11.5664 64.5996 11.9356ZM58.3105 29.5586C58.3105 29.4629 58.2559 29.3809 58.1875 29.3399L55.3164 27.6719C55.2344 27.6309 55.1387 27.6309 55.0566 27.6719L52.1855 29.3399C52.1035 29.3809 52.0625 29.4629 52.0625 29.5586V32.8809C52.0625 32.9766 52.1172 33.0586 52.1855 33.0996L55.0566 34.7539C55.1387 34.795 55.2344 34.795 55.3027 34.7539L58.1738 33.0996C58.2559 33.0586 58.2969 32.9766 58.2969 32.8809V29.5586H58.3105ZM86.9941 29.4629C87.3086 29.2852 87.5 28.9434 87.5 28.5879V26.25C87.5 25.8946 87.3086 25.5528 86.9941 25.375L78.668 20.5352C78.3535 20.3574 77.9707 20.3574 77.6562 20.5352L69.2754 25.375C68.9609 25.5528 68.7695 25.8946 68.7695 26.25V35.9297C68.7695 36.2989 68.9609 36.627 69.2754 36.8047L77.6016 41.5489C77.9023 41.7266 78.2852 41.7266 78.5996 41.5489L83.6309 38.7461C83.9727 38.5547 83.9727 38.0625 83.6309 37.8711L75.1953 33.0313C75.0312 32.9356 74.9355 32.7715 74.9355 32.5938V29.5586C74.9355 29.3809 75.0312 29.2168 75.1953 29.1211L77.8203 27.6035C77.9707 27.5078 78.1758 27.5078 78.3262 27.6035L80.9512 29.1211C81.1016 29.2168 81.2109 29.3809 81.2109 29.5586V31.9375C81.2109 32.3203 81.6348 32.5664 81.9766 32.375L86.9941 29.4629ZM76.4258 29.9414C76.3711 29.9825 76.3301 30.0371 76.3301 30.1055V31.9649C76.3301 32.0332 76.3711 32.1016 76.4258 32.1289L78.0391 33.0586C78.0938 33.0996 78.1758 33.0996 78.2305 33.0586L79.8438 32.1289C79.8984 32.0879 79.9395 32.0332 79.9395 31.9649V30.1055C79.9395 30.0371 79.8984 29.9688 79.8438 29.9414L78.2305 29.0117C78.1758 28.9707 78.0938 28.9707 78.0391 29.0117L76.4258 29.9414ZM41.6719 35.8887V26.2637C41.6719 25.9082 41.4531 25.5664 41.1387 25.3887L32.7852 20.5762C32.498 20.4121 32.1016 20.3848 31.7734 20.5762L23.4199 25.3887C23.1055 25.5664 22.8867 25.8946 22.8867 26.2637V35.8887C22.8867 36.2715 23.1465 36.5996 23.4336 36.7637L31.8008 41.5762C32.1289 41.7676 32.5117 41.7539 32.8125 41.5762L41.1523 36.7637C41.3984 36.627 41.5762 36.3946 41.6445 36.1211C41.6582 36.0528 41.6719 35.9707 41.6719 35.8887ZM31.5137 18.8125L31.4043 18.8809H31.5547L31.5137 18.8125ZM41.9316 36.6133L41.877 36.5176V36.6407L41.9316 36.6133Z" fill="#C9C9D1"/>
</g>
<defs>
<clipPath id="clip0_269_152">
<rect width="87.5" height="70" fill="white"/>
</clipPath>
</defs>
</svg>
