<svg width="70" height="70" viewBox="0 0 70 70" fill="none" xmlns="http://www.w3.org/2000/svg">
<path d="M30.4792 30.5667C30.5233 31.4523 30.2557 32.3254 29.7228 33.0341C29.1899 33.7428 28.4255 34.2424 27.5625 34.4459C26.0396 34.8939 24.452 35.0812 22.8667 35.0001C22.4583 35.0001 22.4292 34.7376 22.4292 34.4459V27.0084C22.4292 26.8042 22.6333 26.4542 22.75 26.4542C24.4185 26.268 26.1067 26.3766 27.7375 26.7751C28.5582 27 29.2774 27.4985 29.776 28.1881C30.2747 28.8777 30.5227 29.7169 30.4792 30.5667Z" fill="#C9C9D1"/>
<path d="M49.5833 5.83337H20.4167C16.5489 5.83337 12.8396 7.36983 10.1047 10.1047C7.36978 12.8396 5.83333 16.549 5.83333 20.4167V49.5834C5.83333 53.4511 7.36978 57.1604 10.1047 59.8953C12.8396 62.6302 16.5489 64.1667 20.4167 64.1667H49.5833C53.4511 64.1667 57.1604 62.6302 59.8953 59.8953C62.6302 57.1604 64.1667 53.4511 64.1667 49.5834V20.4167C64.1667 16.549 62.6302 12.8396 59.8953 10.1047C57.1604 7.36983 53.4511 5.83337 49.5833 5.83337ZM32.0833 37.9167C30.6124 38.854 28.9249 39.3964 27.1833 39.4917H23.275C22.4583 39.4917 22.4583 39.4917 22.4583 40.2792V47.0459C22.4583 47.6292 22.2833 47.8042 21.7 47.8042H17.85C17.2958 47.8042 17.15 47.6 17.15 47.075V22.4875C17.15 21.9042 17.15 21.7292 17.8792 21.7292H27.0083C28.6747 21.7744 30.3016 22.2464 31.7333 23.1C32.9698 23.7968 33.9993 24.8092 34.7167 26.0338C35.4341 27.2585 35.8136 28.6516 35.8167 30.0709C35.9854 31.5964 35.7254 33.1388 35.0659 34.5248C34.4064 35.9107 33.3735 37.0854 32.0833 37.9167ZM49.35 47.5417C46.8127 48.5263 44.0367 48.7195 41.3875 48.0959C40.5942 47.9209 39.8125 47.6875 39.0542 47.3959C38.9369 47.3409 38.8338 47.2597 38.7529 47.1585C38.672 47.0574 38.6154 46.939 38.5875 46.8125V42.4084C39.5208 42.7584 40.3958 43.1667 41.3 43.4584C42.8153 43.9427 44.4197 44.0822 45.9958 43.8667C46.3079 43.8084 46.6142 43.7121 46.9 43.575C47.0709 43.5002 47.2195 43.3823 47.3313 43.2329C47.4431 43.0834 47.5142 42.9076 47.5377 42.7224C47.5612 42.5373 47.5363 42.3493 47.4654 42.1767C47.3945 42.004 47.2801 41.8527 47.1333 41.7375C46.4661 41.2757 45.7525 40.8847 45.0042 40.5709C43.8083 39.9875 42.5833 39.5209 41.4458 38.85C40.4188 38.3504 39.5803 37.5328 39.0548 36.5187C38.5294 35.5046 38.345 34.3481 38.5292 33.2209C38.6775 32.136 39.1282 31.1148 39.8297 30.2741C40.5312 29.4333 41.4551 28.807 42.4958 28.4667C44.3719 27.8335 46.3732 27.6634 48.3292 27.9709C49.2625 27.9709 50.1667 28.3209 51.1 28.4959C51.5958 28.4959 51.7708 28.9042 51.7417 29.4V32.8125C51.7417 33.4542 51.5958 33.5125 51.0125 33.2792C49.1908 32.4358 47.1772 32.0935 45.1792 32.2875C44.8961 32.3205 44.6202 32.3993 44.3625 32.5209C44.1875 32.5896 44.0335 32.7028 43.9158 32.8493C43.798 32.9958 43.7206 33.1705 43.6911 33.3562C43.6616 33.5418 43.6812 33.732 43.7478 33.9078C43.8144 34.0835 43.9257 34.2389 44.0708 34.3584C44.9137 34.9184 45.8004 35.4084 46.725 35.8167C47.8333 36.3709 49 36.8084 50.0792 37.4209C51.0584 37.8665 51.8696 38.6134 52.3943 39.5526C52.919 40.4919 53.1298 41.5742 52.9958 42.6417C52.9036 43.7066 52.5086 44.7229 51.8574 45.5705C51.2062 46.4181 50.326 47.0616 49.3208 47.425L49.35 47.5417Z" fill="#C9C9D1"/>
</svg>
