<svg width="70" height="70" viewBox="0 0 70 70" fill="none" xmlns="http://www.w3.org/2000/svg">
<path d="M29.6217 26.4396C28.5308 26.4396 27.7608 26.5358 27.3438 26.6321V33.9471C27.825 34.0754 28.4667 34.1075 29.2687 34.1075C32.2204 34.1075 34.0171 32.6637 34.0171 30.1292C34.0171 27.7229 32.3488 26.4396 29.6217 26.4396Z" fill="#C9C9D1"/>
<path fill-rule="evenodd" clip-rule="evenodd" d="M19.7458 8.98921C29.8842 7.86541 40.1158 7.86541 50.2542 8.98921C55.7929 9.60754 60.2583 13.968 60.9088 19.5271C62.111 29.8074 62.111 40.1927 60.9088 50.473C60.2583 56.0321 55.7929 60.3925 50.2571 61.0138C40.1177 62.1379 29.8852 62.1379 19.7458 61.0138C14.2071 60.3925 9.74167 56.0321 9.09125 50.4759C7.88879 40.1947 7.88879 29.8083 9.09125 19.5271C9.74167 13.968 14.2071 9.60754 19.7458 8.98921ZM27.3438 45.2084H23.4296V23.873C24.8413 23.6163 26.7983 23.4238 29.4613 23.4238C32.3488 23.4238 34.4663 24.0334 35.8458 25.1884C37.1292 26.2471 37.9633 27.9475 37.9633 29.9688C37.9633 32.0221 37.3217 33.7225 36.1025 34.8775C34.5275 36.4496 32.06 37.1875 29.2688 37.1875C28.5308 37.1875 27.8571 37.1555 27.3438 37.0592V45.2084ZM43.4758 45.2084H39.5296V34.6209C39.5296 32.5034 39.5004 30.9955 39.4013 29.5838H42.8342L42.9625 32.5675H43.0908C43.8608 30.3538 45.6896 29.2309 47.3579 29.2309C47.7429 29.2309 47.9704 29.263 48.2912 29.3271V33.0488C47.9109 32.965 47.5228 32.922 47.1333 32.9205C45.2404 32.9205 43.9571 34.1396 43.6042 35.9042C43.5246 36.3059 43.4817 36.7139 43.4758 37.1234V45.2084Z" fill="#C9C9D1"/>
</svg>
