<svg width="70" height="70" viewBox="0 0 70 70" fill="none" xmlns="http://www.w3.org/2000/svg">
<path fill-rule="evenodd" clip-rule="evenodd" d="M25.2788 27.4663C24.2894 27.4663 23.3097 27.6612 22.3957 28.0398C21.4817 28.4184 20.6512 28.9733 19.9516 29.6729C19.252 30.3725 18.6971 31.203 18.3185 32.117C17.9399 33.031 17.745 34.0107 17.745 35C17.745 35.9894 17.9399 36.969 18.3185 37.8831C18.6971 38.7971 19.252 39.6276 19.9516 40.3272C20.6512 41.0268 21.4817 41.5817 22.3957 41.9603C23.3097 42.3389 24.2894 42.5338 25.2788 42.5338H32.8125V35.1517C32.8113 35.0506 32.8113 34.9495 32.8125 34.8484V27.4663H25.2788ZM32.8125 23.0913H25.2788C23.2803 23.0913 21.3637 22.2974 19.9506 20.8843C18.5374 19.4712 17.7435 17.5545 17.7435 15.5561C17.7435 13.5576 18.5374 11.641 19.9506 10.2279C21.3637 8.81476 23.2803 8.02087 25.2788 8.02087H32.8125V23.0913ZM37.1875 8.02087V23.0913H44.7213C46.694 23.0525 48.5729 22.2415 49.9544 20.8326C51.3358 19.4237 52.1097 17.5293 52.1097 15.5561C52.1097 13.5829 51.3358 11.6884 49.9544 10.2795C48.5729 8.87063 46.694 8.05969 44.7213 8.02087H37.1875ZM44.7213 27.4634C42.7437 27.4631 40.8454 28.2404 39.4359 29.6275C38.0265 31.0146 37.2189 32.9003 37.1875 34.8775V35.1196C37.2116 36.6042 37.6739 38.0486 38.5163 39.2713C39.3586 40.494 40.5435 41.4405 41.9221 41.992C43.3006 42.5434 44.8114 42.6753 46.2647 42.3709C47.7179 42.0665 49.0488 41.3395 50.0902 40.2812C51.1316 39.2228 51.8371 37.8804 52.118 36.4224C52.3989 34.9645 52.2427 33.456 51.669 32.0865C51.0954 30.717 50.1299 29.5476 48.8938 28.725C47.6576 27.9025 46.206 27.4636 44.7213 27.4634ZM25.2788 46.9088C23.788 46.9082 22.3306 47.3497 21.0908 48.1775C19.851 49.0053 18.8846 50.1822 18.3137 51.5593C17.7428 52.9364 17.5932 54.4518 17.8836 55.914C18.1741 57.3762 18.8917 58.7193 19.9456 59.7737C20.9995 60.828 22.3424 61.5461 23.8044 61.8371C25.2665 62.1281 26.782 61.9791 28.1593 61.4087C29.5366 60.8384 30.7139 59.8724 31.5421 58.6329C32.3704 57.3935 32.8125 55.9362 32.8125 54.4455V46.9088H25.2788Z" fill="#C9C9D1"/>
</svg>
