<svg width="23" height="22" viewBox="0 0 23 22" fill="none" xmlns="http://www.w3.org/2000/svg">
<path d="M13.5051 6.25275C13.3969 5.94623 13.1962 5.68082 12.9308 5.4931C12.6654 5.30538 12.3483 5.20458 12.0232 5.20461H10.8085C10.463 5.20558 10.1301 5.33396 9.87334 5.56518C9.61662 5.7964 9.45422 6.11419 9.41724 6.45769C9.38027 6.8012 9.47131 7.14627 9.67293 7.42683C9.87456 7.70738 10.1726 7.9037 10.51 7.97818L12.3611 8.38204C12.7415 8.46315 13.0784 8.68249 13.3064 8.9976C13.5345 9.31272 13.6376 9.70122 13.5957 10.0879C13.5539 10.4747 13.3701 10.8321 13.0799 11.0912C12.7897 11.3502 12.4138 11.4924 12.0248 11.4903H10.9782C10.6532 11.4903 10.3361 11.3896 10.0707 11.2018C9.80529 11.0141 9.60464 10.7487 9.49639 10.4422M11.5 5.20461V3.63318M11.5 13.0618V11.4903" stroke="#C9C9D1" stroke-linecap="round" stroke-linejoin="round"/>
<path d="M8.35711 21.2143H14.6428M18.5714 7.90591C18.5801 6.64368 18.2508 5.40212 17.6177 4.31013C16.9845 3.21814 16.0707 2.31552 14.9709 1.69599C13.8711 1.07645 12.6256 0.762584 11.3636 0.786964C10.1015 0.811344 8.86904 1.17308 7.79402 1.83463C6.71901 2.49618 5.84066 3.43342 5.25018 4.54905C4.65969 5.66467 4.37858 6.91802 4.43604 8.17898C4.4935 9.43993 4.88743 10.6625 5.57694 11.7198C6.26644 12.7771 7.22639 13.6306 8.35711 14.1916V16.5488C8.35711 16.7571 8.4399 16.957 8.58725 17.1043C8.7346 17.2517 8.93444 17.3345 9.14283 17.3345H13.8571C14.0655 17.3345 14.2653 17.2517 14.4127 17.1043C14.56 16.957 14.6428 16.7571 14.6428 16.5488V14.1916C15.8174 13.6129 16.8074 12.7181 17.5014 11.6077C18.1954 10.4973 18.5659 9.21533 18.5714 7.90591Z" stroke="#C9C9D1" stroke-linecap="round" stroke-linejoin="round"/>
</svg>
