<?xml version="1.0" encoding="UTF-8"?>
<!DOCTYPE svg PUBLIC "-//W3C//DTD SVG 1.1//EN" "http://www.w3.org/Graphics/SVG/1.1/DTD/svg11.dtd">
<!-- Creator: CorelDRAW -->
<svg xmlns="http://www.w3.org/2000/svg" xml:space="preserve" width="30mm" height="4.1mm" version="1.1" style="shape-rendering:geometricPrecision; text-rendering:geometricPrecision; image-rendering:optimizeQuality; fill-rule:evenodd; clip-rule:evenodd"
viewBox="0 0 3000 410"
 xmlns:xlink="http://www.w3.org/1999/xlink"
 xmlns:xodm="http://www.corel.com/coreldraw/odm/2003">
 <defs>
  <style type="text/css">
   <![CDATA[
    .fil1 {fill:none;fill-rule:nonzero}
    .fil0 {fill:#374346;fill-rule:nonzero}
   ]]>
  </style>
 </defs>
 <g id="Camada_x0020_1">
  <metadata id="CorelCorpID_0Corel-Layer"/>
  <g id="_2383465628288">
   <path class="fil0" d="M-7.06 145.4c0.68,-5.2 1.25,-10.45 1.71,-15.75l0.44 -0.02 0.42 -0.02c-0.64,7.4 -1.5,14.72 -2.57,21.96l0 -6.17zm3.83 -39.93l-0.33 0.02 -0.39 0.03 0 0 0.01 0 0.01 0 0.01 0 0 0 0.01 0 0.01 0 0.01 0 0 0 0.01 0 0.01 0 0.01 -0.01 0.01 0 0 0 0.01 0 0.01 0 0.01 0 0.01 0 0 0 0.02 0 0.01 0 0 0 0.02 0 0.01 0 0 0 0 0 0.02 0 0.01 0 0 0 0 0 0.02 0 0 0 0.02 0 0.01 0 0.02 0 0.01 0 0.01 0 0 0 0.01 0 0.01 0 0.01 0 0 0 0.01 0 0.01 -0.01 0.02 0 0.01 0 0 0 0.01 0 0.04 0 0.01 0 0 0 0.01 0 0.01 0 0.01 0 0 0 0.01 0 0 0 0.01 0 0 0 0.01 0 0.01 0 0.01 0 0 0 0.01 -0.01 0.01 0 0.01 0 0.01 0 0.01 0 0.01 0 0.12 -0.01 0 -0.01zm-0.72 0.05l-0.03 0 0.01 0 0.01 0 0.01 0z"/>
   <path class="fil0" d="M-7.06 205.8c7.82,-24.58 13.07,-50.32 15.35,-77.21l0.21 -0.02 0.65 -0.06c-2.36,27.92 -7.91,54.62 -16.21,80.06l0 -2.77zm17.44 -101.7l-0.86 0.1 0 0.03 0.86 -0.11 0 -0.02z"/>
   <path class="fil0" d="M-7.06 241.12c15.54,-35.37 25.68,-73.41 29.02,-114.08l0.39 -0.05 0.48 -0.06c-3.39,41.5 -13.85,80.27 -29.89,116.27l0 -2.08zm31.06 -138.96l-0.86 0.13 0 0.03 0.65 -0.1 0.21 -0.03 0 -0.03z"/>
   <path class="fil0" d="M-7.06 268.22c23.42,-43.33 38.64,-91.05 42.72,-143.06l0.2 -0.02 0.67 -0.1c-4.12,52.75 -19.66,101.11 -43.59,144.94l0 -1.76zm44.67 -168.34l-0.86 0.15 0 0.03 0.86 -0.15 0 -0.03z"/>
   <path class="fil0" d="M-7.06 290.75c3.96,-6.27 7.74,-12.64 11.34,-19.11 24.91,-44.76 41.05,-94.3 45.09,-148.47l0.86 -0.12c-4.03,54.36 -20.21,104.07 -45.2,148.98 -3.83,6.88 -7.86,13.64 -12.09,20.29l0 -1.57zm58.28 -193.38l-0.86 0.17 0 0.03 0.86 -0.16 0 -0.04z"/>
   <path class="fil0" d="M-7.06 310.26c8.95,-12.51 17.21,-25.46 24.68,-38.83 25.25,-45.2 41.54,-95.28 45.44,-150.1l0.86 -0.11c-3.89,55.01 -20.23,105.27 -45.56,150.61 -7.68,13.74 -16.19,27.04 -25.42,39.88l0 -1.45z"/>
   <path class="fil0" d="M-7.06 327.57c14.18,-17.84 26.95,-36.63 38.01,-56.35 25.53,-45.52 41.96,-96.01 45.76,-151.32l0.86 -0.07c-3.79,55.49 -20.27,106.13 -45.87,151.79 -11.26,20.07 -24.28,39.17 -38.76,57.3l0 -1.35z"/>
   <path class="fil0" d="M-7.06 343.18c19.58,-22.46 36.91,-46.52 51.34,-72.16 25.71,-45.65 42.24,-96.31 46.04,-151.84l0.86 -0.01c-3.8,55.67 -20.39,106.48 -46.15,152.24 -14.63,25.98 -32.21,50.33 -52.09,73.04l0 -1.27z"/>
   <path class="fil0" d="M-7.06 357.41c25.08,-26.48 47.03,-55.36 64.68,-86.6 25.71,-45.5 42.32,-96.01 46.24,-151.36l0.04 0 0.72 0.05 0.09 0.01c-3.93,55.48 -20.58,106.1 -46.35,151.7 -17.83,31.56 -40.04,60.71 -65.42,87.42l0 -1.22z"/>
   <path class="fil0" d="M-7.06 370.5c30.65,-30.01 57.27,-63.34 78.01,-99.9 25.54,-45 42.15,-94.93 46.35,-149.61l0.84 0.14c-4.22,54.78 -20.87,104.78 -46.45,149.87 -20.91,36.88 -47.8,70.46 -78.75,100.68l0 -1.18z"/>
   <path class="fil0" d="M-7.06 382.63c36.25,-33.12 67.62,-70.57 91.35,-112.23 25.11,-44.11 41.65,-92.95 46.31,-146.37l0.83 0.24c-4.69,53.48 -21.26,102.37 -46.4,146.53 -23.89,41.96 -55.54,79.66 -92.09,112.97l0 -1.14z"/>
   <path class="fil0" d="M-7.06 393.92c41.86,-35.85 78.06,-77.15 104.68,-123.73 24.43,-42.74 40.79,-89.94 46.07,-141.46l0.81 0.35 0.01 0.01c-5.33,51.53 -21.71,98.74 -46.15,141.51 -26.79,46.87 -63.25,88.41 -105.42,124.43l0 -1.11z"/>
   <path class="fil0" d="M-7.06 404.47c47.47,-38.24 88.57,-83.14 118.02,-134.48 23.45,-40.89 39.52,-85.88 45.54,-134.84l0.24 0.14 0.48 0.27 0.08 0.04c-6.07,48.94 -22.15,93.91 -45.61,134.79 -29.61,51.64 -70.98,96.76 -118.75,135.16l0 -1.08z"/>
   <path class="fil0" d="M-7.06 414.37c53.06,-40.33 99.13,-88.62 131.35,-144.58 22.33,-38.8 38.01,-81.29 44.75,-127.38l0.11 0.06 0.51 0.31 0.17 0.1c-6.78,46.05 -22.48,88.52 -44.8,127.31 -32.39,56.25 -78.73,104.76 -132.09,145.23l0 -1.05z"/>
   <path class="fil0" d="M2.62 416.58c54.55,-40.78 102,-89.87 135,-147 21.17,-36.64 36.4,-76.59 43.75,-119.77l0.19 0.12 0.52 0.32 0.07 0.04c-7.39,43.14 -22.63,83.07 -43.79,119.7 -32.88,56.92 -80.07,105.88 -134.34,146.59l-1.4 0z"/>
   <path class="fil0" d="M15.22 416.58c54.82,-40.78 102.54,-89.95 135.73,-147.2 20,-34.48 34.73,-71.9 42.56,-112.19l0.78 0.47c-7.87,40.26 -22.61,77.66 -42.6,112.13 -33.08,57.05 -80.54,106.07 -135.06,146.79l-1.41 0z"/>
   <path class="fil0" d="M27.83 416.58c55.07,-40.78 103.07,-90.02 136.46,-147.4 18.83,-32.36 33.01,-67.31 41.21,-104.79l0.01 0 0.76 0.45c-8.23,37.47 -22.42,72.4 -41.24,104.75 -33.28,57.17 -81.01,106.27 -135.79,146.99l-1.41 0z"/>
   <path class="fil0" d="M40.43 416.58c55.34,-40.79 103.61,-90.09 137.19,-147.6 17.69,-30.3 31.31,-62.87 39.74,-97.67l0.77 0.44c-8.46,34.78 -22.09,67.35 -39.77,97.63 -33.47,57.31 -81.47,106.48 -136.51,147.2l-1.42 0z"/>
   <path class="fil0" d="M53.03 416.58c55.6,-40.79 104.14,-90.16 137.92,-147.81 16.6,-28.31 29.63,-58.63 38.19,-90.91l0.77 0.42c-8.58,32.27 -21.62,62.58 -38.22,90.91 -33.66,57.43 -81.93,106.67 -137.23,147.39l-1.43 0z"/>
   <path class="fil1" d="M204.29 268.57c15.56,-26.46 28.01,-54.67 36.59,-84.6"/>
   <path class="fil0" d="M78.24 416.58c56.12,-40.79 105.21,-90.3 139.38,-148.21 14.61,-24.75 26.49,-51.04 35.03,-78.84l0.78 0.34c-8.55,27.83 -20.45,54.14 -35.07,78.92 -34.05,57.69 -82.87,107.06 -138.69,147.79l-1.43 0z"/>
   <path class="fil0" d="M90.85 416.58c56.37,-40.8 105.74,-90.37 140.11,-148.4 13.75,-23.24 25.11,-47.83 33.55,-73.76l0.79 0.3c-8.46,25.97 -19.83,50.6 -33.61,73.87 -34.24,57.82 -83.34,107.26 -139.41,147.99l-1.43 0z"/>
   <path class="fil0" d="M103.45 416.58c56.64,-40.8 106.28,-90.44 140.84,-148.6 13.04,-21.96 23.94,-45.13 32.25,-69.49l0.01 0 0.02 0.01 0.01 0 0.01 0.01 0.01 0 0.02 0 0.01 0.01 0.01 0 0.08 0.02 0.01 0.01 0.09 0.02 0.01 0.01 0.02 0 0.01 0 0.04 0.01 0.01 0.01 0.01 0 0.02 0 0.01 0.01 0.02 0 0.02 0.01 0.01 0 0.01 0.01 0.01 0 0.02 0 0.01 0.01 0.01 0 0.01 0 0.02 0.01 0.01 0 0.01 0 0.02 0.01 0.01 0 0.01 0 0.01 0.01 0.02 0 0.01 0.01 0.01 0 0.02 0 0.01 0.01 0.01 0 0.01 0 0.02 0.01 0.01 0 0.01 0 0.01 0.01 0.02 0 0.01 0.01 0.01 0 0.02 0c-8.34,24.43 -19.26,47.66 -32.34,69.67 -34.43,57.95 -83.8,107.45 -140.13,148.19l-1.44 0z"/>
   <path class="fil0" d="M116.05 416.58c56.9,-40.8 106.82,-90.51 141.57,-148.8 12.51,-20.99 23.06,-43.09 31.26,-66.29l0.04 0.01 0.8 0.15c-8.22,23.29 -18.81,45.48 -31.37,66.55 -34.63,58.07 -84.26,107.64 -140.85,148.38l-1.45 0z"/>
   <path class="fil1" d="M270.95 267.58c12.24,-20.46 22.61,-41.98 30.76,-64.54"/>
   <path class="fil0" d="M141.26 416.58c57.42,-40.8 107.88,-90.65 143.02,-149.2 12.36,-20.58 22.82,-42.24 31.03,-64.97l0.01 0 0.02 0 0.01 0 0.02 0 0.01 -0.01 0.02 0 0.01 0 0.02 0 0.01 -0.01 0.02 0 0.01 0 0.02 0 0.01 0 0.02 -0.01 0.01 0 0.02 0 0.03 -0.01 0.01 0 0.64 -0.09 0.01 -0.01 0.02 0c-8.25,22.93 -18.79,44.78 -31.25,65.53 -35.01,58.33 -85.19,108.04 -142.3,148.78l-1.45 0z"/>
   <path class="fil0" d="M153.86 416.58c57.68,-40.8 108.42,-90.72 143.76,-149.39 13.14,-21.83 24.16,-44.87 32.61,-69.1l0.01 -0.01c0.28,-0.13 0.55,-0.26 0.82,-0.39l0.02 -0.01 0.04 -0.02 0.01 -0.01 0.02 0 0.01 -0.01 0.02 -0.01 0.02 -0.01 0.02 -0.01 0.01 0 0.02 -0.01 0.02 -0.01 0.01 -0.01 0.02 -0.01c-8.51,24.58 -19.64,47.93 -32.96,70.04 -35.2,58.46 -85.65,108.23 -143.03,148.97l-1.45 0z"/>
   <path class="fil0" d="M166.46 416.58c57.94,-40.8 108.96,-90.79 144.49,-149.59 15.42,-25.52 27.92,-52.7 36.82,-81.51l0 -0.01 0.01 -0.01 0.01 0 0.01 -0.01 0.01 -0.01 0.01 -0.01 0.01 -0.02 0.01 -0.01 0.01 0 0.01 -0.01 0.01 -0.02 0.01 -0.01 0.01 -0.01 0.01 0 0.01 -0.01 0 -0.01 0.01 -0.01 0.01 -0.01 0.01 -0.01 0.01 0 0.01 -0.01 0 -0.01 0.01 -0.01 0.01 -0.01c0.09,-0.09 0.18,-0.18 0.27,-0.28l0.01 0 0.01 -0.01 0.01 -0.02 0.01 -0.01 0.78 -0.83c-8.94,29.48 -21.65,57.25 -37.39,83.3 -35.4,58.59 -86.13,108.43 -143.76,149.17l-1.46 0z"/>
   <path class="fil0" d="M179.06 416.58c58.2,-40.8 109.49,-90.85 145.22,-149.78 18.71,-30.87 33.16,-64.18 42.1,-99.87l0.04 -0.04 0.9 -0.84 0.2 -0.18c-8.94,36.25 -23.54,70.05 -42.51,101.35 -35.6,58.71 -86.59,108.61 -144.48,149.36l-1.47 0z"/>
   <path class="fil0" d="M191.67 416.58c58.46,-40.8 110.02,-90.92 145.94,-149.98 21.31,-35.03 37.12,-73.22 45.61,-114.48l0.89 -0.74 0.16 -0.13c-8.46,41.75 -24.39,80.37 -45.93,115.77 -35.79,58.84 -87.06,108.81 -145.21,149.56l-1.46 0z"/>
   <path class="fil0" d="M204.26 416.58c58.73,-40.81 110.57,-90.99 146.69,-150.18 23.48,-38.48 40.33,-80.79 48.1,-126.81l0 0 0.81 -0.6 0.18 -0.14c-7.73,46.46 -24.68,89.15 -48.37,127.98 -35.98,58.97 -87.52,109 -145.93,149.75l-1.48 0z"/>
   <path class="fil0" d="M216.87 416.58c58.98,-40.81 111.1,-91.05 147.41,-150.37 25.38,-41.46 43.04,-87.35 49.95,-137.54l0.03 -0.02 0.92 -0.63c-6.86,50.6 -24.61,96.86 -50.18,138.61 -36.17,59.1 -87.99,109.2 -146.65,149.95l-1.48 0z"/>
   <path class="fil0" d="M229.47 416.58c59.24,-40.81 111.63,-91.12 148.14,-150.56 27.05,-44.05 45.39,-93.12 51.35,-147.05l0.26 -0.17 0.66 -0.41c-5.9,54.32 -24.32,103.72 -51.55,148.05 -36.37,59.22 -88.45,109.39 -147.38,150.14l-1.48 0z"/>
   <path class="fil0" d="M242.07 416.58c59.51,-40.81 112.17,-91.19 148.87,-150.76 28.55,-46.34 47.45,-98.25 52.42,-155.55l0.12 -0.07 0.78 -0.45c-4.9,57.66 -23.88,109.89 -52.6,156.5 -36.56,59.35 -88.92,109.58 -148.1,150.33l-1.49 0z"/>
   <path class="fil0" d="M254.67 416.58c59.77,-40.81 112.7,-91.25 149.6,-150.95 29.91,-48.39 49.29,-102.86 53.24,-163.21l0.53 -0.28 0.35 -0.19c-3.89,60.7 -23.33,115.47 -53.39,164.11 -36.76,59.47 -89.39,109.77 -148.83,150.52l-1.5 0z"/>
   <path class="fil0" d="M267.27 416.58c60.03,-40.81 113.24,-91.32 150.34,-151.14 31.13,-50.21 50.91,-106.99 53.86,-170.11l0.24 -0.12 0.63 -0.3c-2.88,63.45 -22.73,120.51 -54.01,170.96 -36.96,59.6 -89.86,109.96 -149.56,150.71l-1.5 0z"/>
   <path class="fil0" d="M279.88 416.58c60.28,-40.81 113.76,-91.38 151.06,-151.33 32.23,-51.84 52.37,-110.69 54.35,-176.3l0.74 -0.32 0.12 -0.05c-1.91,65.92 -22.11,125.04 -54.49,177.09 -37.15,59.73 -90.33,110.16 -150.29,150.91l-1.49 0z"/>
   <path class="fil0" d="M292.48 416.58c60.54,-40.81 114.3,-91.45 151.79,-151.53 33.18,-53.18 53.61,-113.78 54.72,-181.5l0.59 -0.2 0.28 -0.1c-1.07,68.01 -21.56,128.85 -54.87,182.24 -37.34,59.85 -90.79,110.34 -151.01,151.09l-1.5 0z"/>
   <path class="fil0" d="M305.08 416.58c60.8,-40.81 114.84,-91.51 152.52,-151.72 33.93,-54.21 54.6,-116.13 55.03,-185.47l0.63 -0.16 0.23 -0.06c-0.4,69.59 -21.13,131.73 -55.17,186.12 -37.54,59.98 -91.26,110.54 -151.74,151.29l-1.5 0z"/>
   <path class="fil0" d="M317.68 416.58c61.06,-40.8 115.37,-91.57 153.25,-151.91 34.3,-54.64 55.14,-117.14 55.31,-187.19l0.85 -0.03c-0.17,70.23 -21.05,132.88 -55.44,187.65 -37.73,60.11 -91.73,110.73 -152.46,151.48l-1.51 0z"/>
   <path class="fil0" d="M330.27 416.58c61.33,-40.8 115.92,-91.64 153.99,-152.1 34.46,-54.72 55.4,-117.34 55.57,-187.56l0.86 -0.03c-0.17,70.39 -21.16,133.16 -55.71,188.02 -37.93,60.23 -92.19,110.92 -153.18,151.67l-1.53 0z"/>
   <path class="fil0" d="M342.88 416.58c61.58,-40.8 116.44,-91.7 154.71,-152.29 34.43,-54.51 55.43,-116.86 55.83,-186.77l0.86 0.19c-0.45,69.99 -21.49,132.43 -55.97,187.02 -38.12,60.35 -92.66,111.1 -153.91,151.85l-1.52 0z"/>
   <path class="fil0" d="M355.48 416.58c61.85,-40.8 116.98,-91.76 155.45,-152.48 33.72,-53.23 54.63,-113.97 56.02,-181.93l0.01 0 0.02 0.01 0.01 0 0.02 0.01 0.01 0.01 0.01 0 0.03 0.02 0.01 0 0.01 0.01 0.02 0.01 0.18 0.09 0.02 0 0.01 0.01 0.01 0 0.02 0.01 0.01 0.01 0.01 0 0.02 0.01 0.01 0.01 0.01 0 0.02 0.01 0.01 0.01 0.01 0 0.01 0.01 0.02 0.01 0.01 0 0.02 0.01 0.01 0.01 0.01 0 0.01 0.01 0.02 0.01 0.01 0 0.01 0.01 0.02 0.01 0.01 0 0.01 0.01 0.02 0 0.01 0.01 0.01 0.01 0.02 0 0.01 0.01 0.01 0.01 0.02 0 0.01 0.01 0.01 0.01 0.02 0 0.01 0.01 0.01 0.01 0.02 0 0.01 0.01c-1.47,67.96 -22.42,128.7 -56.16,181.96 -38.31,60.48 -93.13,111.29 -154.63,152.04l-1.53 0z"/>
   <path class="fil0" d="M368.08 416.58c62.11,-40.8 117.52,-91.83 156.17,-152.67 32.77,-51.56 53.51,-110.18 56.1,-175.59l0.09 0.02 0.7 0.19 0.06 0.01c-2.64,65.49 -23.42,124.18 -56.23,175.81 -38.51,60.6 -93.59,111.48 -155.36,152.23l-1.53 0z"/>
   <path class="fil0" d="M380.67 416.58c62.37,-40.8 118.06,-91.89 156.91,-152.86 32.41,-50.85 53.12,-108.59 56.23,-172.95l0.61 0.07 0.24 0.03c-3.13,64.49 -23.88,122.34 -56.36,173.29 -38.7,60.73 -94.06,111.67 -156.09,152.42l-1.54 0z"/>
   <path class="fil0" d="M393.28 416.58c62.62,-40.8 118.59,-91.95 157.64,-153.05 32.24,-50.45 52.96,-107.68 56.39,-171.46l0.42 0.03 0.43 0.03c-3.44,63.92 -24.21,121.28 -56.53,171.84 -38.9,60.86 -94.53,111.87 -156.82,152.61l-1.53 0z"/>
   <path class="fil0" d="M405.87 416.58c62.89,-40.79 119.13,-92.01 158.38,-153.24 32.15,-50.16 52.91,-107.04 56.58,-170.4l0.75 0.04 0.1 0.01c-3.68,63.51 -24.49,120.52 -56.72,170.79 -39.09,60.98 -95,112.06 -157.54,152.8l-1.55 0z"/>
   <path class="fil0" d="M418.47 416.58c63.15,-40.79 119.66,-92.08 159.11,-153.43 32.09,-49.91 52.88,-106.48 56.77,-169.49l0.82 0.05 0.03 0c-3.9,63.16 -24.74,119.86 -56.91,169.89 -39.29,61.11 -95.47,112.24 -158.27,152.98l-1.55 0z"/>
   <path class="fil0" d="M431.07 416.58c63.41,-40.79 120.2,-92.14 159.84,-153.61 32.01,-49.65 52.84,-105.91 56.95,-168.55l0.66 0.04 0.19 0.01c-4.12,62.79 -25,119.18 -57.09,168.94 -39.48,61.23 -95.93,112.43 -158.99,153.17l-1.56 0z"/>
   <path class="fil0" d="M443.67 416.58c63.67,-40.79 120.73,-92.2 160.57,-153.8 31.91,-49.35 52.77,-105.25 57.12,-167.45l0.82 0.06 0.03 0c-4.36,62.35 -25.27,118.37 -57.26,167.84 -39.68,61.35 -96.4,112.61 -159.72,153.35l-1.56 0z"/>
   <path class="fil0" d="M456.27 416.59c63.93,-40.79 121.27,-92.27 161.3,-153.99 31.76,-48.99 52.63,-104.43 57.25,-166.1l0.86 0.09c-4.65,61.8 -25.56,117.36 -57.4,166.45 -39.87,61.48 -96.87,112.81 -160.45,153.55l-1.56 0z"/>
   <path class="fil0" d="M468.87 416.59c64.19,-40.79 121.8,-92.33 162.03,-154.18 31.55,-48.51 52.4,-103.35 57.35,-164.33l0.85 0.12c-4.98,61.09 -25.88,116.05 -57.49,164.65 -40.07,61.61 -97.34,113 -161.17,153.74l-1.57 0z"/>
   <path class="fil0" d="M481.46 416.59c64.45,-40.79 122.34,-92.39 162.77,-154.37 31.23,-47.87 52.03,-101.95 57.39,-162l0.84 0.16c-5.38,60.16 -26.23,114.33 -57.52,162.29 -40.26,61.73 -97.81,113.18 -161.9,153.92l-1.58 0z"/>
   <path class="fil0" d="M494.07 416.59c64.7,-40.78 122.87,-92.45 163.49,-154.55 30.77,-47.04 51.47,-100.07 57.33,-158.89l0.83 0.22c-5.89,58.9 -26.64,112 -57.45,159.11 -40.46,61.86 -98.28,113.37 -162.63,154.11l-1.57 0z"/>
   <path class="fil0" d="M506.66 416.59c64.97,-40.78 123.41,-92.51 164.23,-154.74 30.1,-45.89 50.61,-97.5 57.1,-154.62l0.8 0.3 0.02 0.01c-6.53,57.18 -27.08,108.83 -57.21,154.76 -40.65,61.98 -98.75,113.56 -163.36,154.29l-1.58 0z"/>
   <path class="fil0" d="M519.26 416.59c65.22,-40.78 123.94,-92.57 164.96,-154.92 29.1,-44.25 49.29,-93.83 56.57,-148.55l0.02 0.01 0.75 0.44 0.03 0.01c-7.34,54.71 -27.55,104.28 -56.66,148.54 -40.85,62.09 -99.22,113.74 -164.08,154.47l-1.59 0z"/>
   <path class="fil0" d="M531.86 416.59c65.49,-40.78 124.48,-92.63 165.69,-155.11 27.71,-42.01 47.38,-88.83 55.58,-140.31l0.78 0.51c-8.26,51.45 -27.95,98.25 -55.65,140.25 -41.05,62.22 -99.69,113.93 -164.82,154.66l-1.58 0z"/>
   <path class="fil0" d="M544.45 416.59c65.75,-40.77 125.02,-92.69 166.43,-155.29 26.33,-39.82 45.44,-83.97 54.4,-132.32l0.77 0.49c-9,48.33 -28.13,92.46 -54.46,132.28 -41.24,62.35 -100.16,114.11 -165.54,154.84l-1.6 0z"/>
   <path class="fil0" d="M557.05 416.59c66.01,-40.77 125.55,-92.75 167.16,-155.48 25.02,-37.73 43.55,-79.35 53.1,-124.75l0.77 0.46c-9.59,45.39 -28.14,87.01 -53.16,124.74 -41.44,62.48 -100.62,114.3 -166.26,155.03l-1.61 0z"/>
   <path class="fil0" d="M569.65 416.59c66.26,-40.77 126.09,-92.81 167.89,-155.66 23.76,-35.74 41.7,-74.97 51.68,-117.6l0.77 0.44c-10.02,42.63 -27.97,81.87 -51.74,117.61 -41.63,62.6 -101.1,114.49 -167,155.21l-1.6 0z"/>
   <path class="fil0" d="M582.25 416.59c66.52,-40.76 126.62,-92.87 168.62,-155.85 22.56,-33.82 39.89,-70.8 50.19,-110.83l0.77 0.42c-10.33,40.04 -27.68,77.02 -50.25,110.87 -41.83,62.72 -101.57,114.67 -167.73,155.39l-1.6 0z"/>
   <path class="fil0" d="M594.85 416.59c66.78,-40.76 127.16,-92.93 169.35,-156.03 21.4,-32.02 38.13,-66.85 48.64,-104.43l0.12 0.06 0.65 0.33c-10.54,37.6 -27.29,72.46 -48.71,104.5 -42.02,62.84 -102.03,114.86 -168.44,155.57l-1.61 0z"/>
   <path class="fil0" d="M607.44 416.59c67.05,-40.75 127.7,-92.99 170.09,-156.21 20.31,-30.3 36.42,-63.12 47.04,-98.41l0.78 0.37c-10.65,35.32 -26.79,68.17 -47.12,98.49 -42.21,62.97 -102.5,115.05 -169.17,155.76l-1.62 0z"/>
   <path class="fil0" d="M620.04 416.59c67.3,-40.75 128.23,-93.04 170.82,-156.4 19.27,-28.66 34.78,-59.6 45.43,-92.75l0.78 0.35c-10.68,33.19 -26.21,64.16 -45.51,92.86 -42.41,63.09 -102.97,115.23 -169.9,155.94l-1.62 0z"/>
   <path class="fil0" d="M632.63 416.59c67.56,-40.74 128.77,-93.1 171.55,-156.58 18.29,-27.14 33.22,-56.31 43.83,-87.48l0.78 0.33c-10.64,31.21 -25.58,60.43 -43.9,87.61 -42.61,63.22 -103.44,115.42 -170.63,156.12l-1.63 0z"/>
   <path class="fil0" d="M645.22 416.59c67.83,-40.74 129.31,-93.16 172.29,-156.76 17.38,-25.72 31.73,-53.26 42.26,-82.6l0.79 0.3c-10.55,29.4 -24.93,56.99 -42.34,82.76 -42.81,63.34 -103.91,115.6 -171.36,156.3l-1.64 0z"/>
   <path class="fil0" d="M657.82 416.59c68.08,-40.74 129.84,-93.22 173.02,-156.94 16.53,-24.41 30.34,-50.46 40.74,-78.14l0.06 0.02 0.74 0.25c-10.42,27.75 -24.26,53.86 -40.83,78.33 -43,63.46 -104.38,115.78 -172.09,156.48l-1.64 0z"/>
   <path class="fil0" d="M670.42 416.59c68.34,-40.73 130.38,-93.28 173.75,-157.12 15.77,-23.22 29.08,-47.94 39.32,-74.13l0.82 0.24c-10.27,26.27 -23.62,51.06 -39.44,74.35 -43.19,63.58 -104.85,115.97 -172.81,156.66l-1.64 0z"/>
   <path class="fil0" d="M683.02 416.59c68.6,-40.73 130.91,-93.33 174.48,-157.3 15.11,-22.18 27.96,-45.73 38.04,-70.62l0.83 0.2c-10.12,24.99 -23.01,48.62 -38.17,70.88 -43.39,63.71 -105.32,116.15 -173.54,156.84l-1.64 0z"/>
   <path class="fil0" d="M695.61 416.59c68.86,-40.72 131.45,-93.39 175.22,-157.49 14.54,-21.3 27.01,-43.87 36.94,-67.68l0.85 0.17c-9.96,23.92 -22.48,46.58 -37.09,67.98 -43.58,63.83 -105.79,116.34 -174.27,157.02l-1.65 0z"/>
   <path class="fil0" d="M708.21 416.59c69.12,-40.72 131.98,-93.45 175.95,-157.67 14.12,-20.63 26.29,-42.44 36.09,-65.42l0.87 0.12c-9.84,23.11 -22.07,45.03 -36.26,65.77 -43.78,63.95 -106.26,116.52 -175,157.2l-1.65 0z"/>
   <path class="fil0" d="M720.8 416.59c69.38,-40.71 132.53,-93.5 176.69,-157.85 13.85,-20.19 25.84,-41.52 35.57,-63.97l0.08 0 0.82 0.05c-9.77,22.6 -21.83,44.07 -35.77,64.39 -43.98,64.08 -106.73,116.71 -175.73,157.38l-1.66 0z"/>
   <path class="fil0" d="M733.4 416.59c69.64,-40.71 133.06,-93.56 177.41,-158.03 13.82,-20.07 25.78,-41.27 35.5,-63.58l0.89 -0.03 0.05 0c-9.78,22.49 -21.82,43.85 -35.74,64.08 -44.17,64.2 -107.2,116.89 -176.45,157.56l-1.66 0z"/>
   <path class="fil0" d="M745.99 416.59c69.9,-40.7 133.6,-93.61 178.15,-158.21 14.06,-20.38 26.21,-41.92 36.05,-64.61l0.99 -0.15c-9.9,22.91 -22.15,44.66 -36.34,65.23 -44.37,64.32 -107.67,117.08 -177.18,157.74l-1.67 0z"/>
   <path class="fil0" d="M758.59 416.59c70.16,-40.69 134.13,-93.67 178.88,-158.39 14.74,-21.31 27.39,-43.9 37.5,-67.75l1.01 -0.32 0.05 -0.01c-10.17,24.13 -22.95,46.99 -37.86,68.55 -44.56,64.45 -108.14,117.26 -177.91,157.92l-1.67 0z"/>
   <path class="fil0" d="M771.18 416.59c70.42,-40.69 134.67,-93.73 179.62,-158.57 16.15,-23.3 29.81,-48.12 40.37,-74.45l0.02 -0.01 0.02 -0.01 0.02 -0.01 0.02 -0.01 0.97 -0.56 0.02 -0.01 0.04 -0.02 0.01 -0.01 0.02 -0.01 0.02 -0.01 0.02 -0.01c-10.64,26.75 -24.46,51.95 -40.85,75.59 -44.76,64.57 -108.61,117.45 -178.64,158.1l-1.68 0z"/>
   <path class="fil0" d="M783.78 416.59c70.67,-40.68 135.2,-93.78 180.35,-158.75 18.89,-27.18 34.39,-56.44 45.52,-87.74l1.29 -1.11c-11.2,31.89 -26.9,61.68 -46.11,89.32 -44.96,64.69 -109.09,117.63 -179.37,158.28l-1.68 0z"/>
   <path class="fil0" d="M796.37 416.59c70.93,-40.68 135.74,-93.84 181.09,-158.93 22.49,-32.29 40.2,-67.53 51.49,-105.63l1.26 -1.28c-11.29,38.77 -29.21,74.59 -52.06,107.38 -45.15,64.82 -109.55,117.82 -180.09,158.46l-1.69 0z"/>
   <path class="fil0" d="M808.96 416.59c71.2,-40.67 136.28,-93.89 181.83,-159.1 26.36,-37.76 46.18,-79.53 56.84,-125.22l0.63 -0.69 0.54 -0.59c-10.61,46.36 -30.61,88.73 -57.32,126.97 -45.35,64.93 -110.03,117.99 -180.82,158.63l-1.7 0z"/>
   <path class="fil0" d="M821.56 416.59c71.45,-40.67 136.82,-93.95 182.55,-159.28 30.03,-42.89 51.6,-90.98 60.89,-144.11l0.89 -0.97 0.18 -0.19c-9.2,53.77 -30.92,102.4 -61.26,145.74 -45.55,65.06 -110.5,118.18 -181.55,158.81l-1.7 0z"/>
   <path class="fil0" d="M834.15 416.59c71.72,-40.66 137.36,-94 183.29,-159.46 33.25,-47.38 56.17,-101.1 63.63,-160.96l0.05 -0.06 0.92 -0.94c-7.32,60.44 -30.38,114.66 -63.91,162.43 -45.74,65.18 -110.96,118.36 -182.27,158.99l-1.71 0z"/>
   <path class="fil0" d="M846.74 416.59c71.98,-40.65 137.89,-94.05 184.03,-159.64 35.96,-51.12 59.9,-109.65 65.34,-175.32l0.92 -0.83c-5.31,66.18 -29.36,125.15 -65.57,176.62 -45.93,65.31 -111.44,118.55 -183.01,159.17l-1.71 0z"/>
   <path class="fil0" d="M859.33 416.59c72.24,-40.65 138.43,-94.11 184.77,-159.82 38.19,-54.16 62.88,-116.65 66.36,-187.13l0 0 0.88 -0.67 0 -0.01c-3.35,70.95 -28.14,133.82 -66.55,188.29 -46.13,65.42 -111.91,118.72 -183.74,159.34l-1.72 0z"/>
   <path class="fil0" d="M871.93 416.59c72.5,-40.64 138.97,-94.17 185.49,-159.99 39.97,-56.54 65.22,-122.17 66.96,-196.51l0.87 -0.51c-1.64,74.73 -26.98,140.69 -67.13,197.49 -46.33,65.54 -112.38,118.91 -184.47,159.52l-1.72 0z"/>
   <path class="fil0" d="M884.52 416.59c72.76,-40.63 139.5,-94.22 186.23,-160.17 41.31,-58.3 66.97,-126.27 67.32,-203.5l0.86 -0.37c-0.28,77.57 -26.02,145.82 -67.49,204.34 -46.52,65.67 -112.85,119.09 -185.2,159.7l-1.72 0z"/>
   <path class="fil0" d="M897.12 416.59c73.01,-40.63 140.03,-94.27 186.96,-160.35 41.59,-58.57 67.4,-126.91 67.59,-204.61l0.86 -0.04c-0.2,77.91 -26.07,146.42 -67.76,205.13 -46.72,65.79 -113.32,119.27 -185.93,159.87l-1.72 0z"/>
   <path class="fil0" d="M909.7 416.59c73.28,-40.62 140.58,-94.33 187.71,-160.53 41.75,-58.65 67.66,-127.12 67.86,-204.99l0.85 -0.04c-0.19,78.07 -26.17,146.71 -68.02,205.51 -46.92,65.92 -113.8,119.46 -186.66,160.05l-1.74 0z"/>
   <path class="fil0" d="M922.3 416.59c73.53,-40.61 141.11,-94.38 188.43,-160.7 41.91,-58.75 67.94,-127.35 68.13,-205.39l0.86 -0.03c-0.2,78.24 -26.28,147.01 -68.29,205.9 -47.12,66.03 -114.27,119.63 -187.39,160.22l-1.74 0z"/>
   <path class="fil0" d="M934.89 416.59c73.79,-40.61 141.65,-94.44 189.17,-160.88 42.07,-58.83 68.21,-127.56 68.4,-205.77l0.86 -0.03c-0.2,78.41 -26.39,147.31 -68.57,206.28 -47.31,66.16 -114.73,119.82 -188.11,160.4l-1.75 0z"/>
   <path class="fil0" d="M947.49 416.59c74.05,-40.6 142.19,-94.49 189.9,-161.06 42.23,-58.91 68.47,-127.77 68.66,-206.15l0.86 -0.04c-0.19,78.58 -26.5,147.62 -68.83,206.68 -47.51,66.27 -115.21,119.99 -188.85,160.57l-1.74 0z"/>
   <path class="fil0" d="M960.08 416.59c74.31,-40.59 142.72,-94.54 190.64,-161.23 42.39,-59.01 68.74,-127.99 68.93,-206.54l0.86 -0.04c-0.2,78.75 -26.61,147.91 -69.1,207.06 -47.71,66.4 -115.69,120.18 -189.58,160.75l-1.75 0z"/>
   <path class="fil0" d="M972.67 416.59c74.57,-40.59 143.26,-94.6 191.38,-161.41 42.54,-59.09 69,-128.21 69.2,-206.93l0.86 -0.03c-0.2,78.92 -26.72,148.21 -69.38,207.44 -47.9,66.53 -116.15,120.37 -190.3,160.93l-1.76 0z"/>
   <path class="fil0" d="M985.26 416.6c74.83,-40.59 143.8,-94.66 192.11,-161.59 42.55,-58.95 69.07,-127.89 69.47,-206.4l0.85 0.06c-0.42,78.67 -27,147.75 -69.63,206.82 -48.1,66.64 -116.63,120.55 -191.04,161.11l-1.76 0z"/>
   <path class="fil0" d="M997.85 416.6c75.09,-40.58 144.34,-94.71 192.85,-161.77 42.46,-58.7 69.03,-127.31 69.72,-205.42l0.86 0.04c-0.71,78.28 -27.35,147.04 -69.9,205.87 -48.29,66.76 -117.09,120.72 -191.76,161.28l-1.77 0z"/>
   <path class="fil0" d="M1010.44 416.6c75.35,-40.58 144.88,-94.76 193.58,-161.95 42.45,-58.54 69.09,-126.97 69.99,-204.86l0.64 0.01 0.22 0c-0.91,78.07 -27.62,146.66 -70.16,205.34 -48.49,66.89 -117.57,120.91 -192.5,161.46l-1.77 0z"/>
   <path class="fil0" d="M1023.04 416.6c75.6,-40.57 145.41,-94.82 194.31,-162.12 42.55,-58.55 69.28,-127 70.25,-204.93l0.86 -0.04c-0.97,78.13 -27.77,146.75 -70.42,205.46 -48.69,67 -118.05,121.08 -193.23,161.63l-1.77 0z"/>
   <path class="fil0" d="M1035.63 416.6c75.87,-40.56 145.95,-94.87 195.05,-162.29 42.79,-58.77 69.65,-127.51 70.53,-205.8l0.85 -0.1c-0.86,78.52 -27.79,147.46 -70.7,206.38 -48.88,67.13 -118.51,121.27 -193.96,161.81l-1.77 0z"/>
   <path class="fil0" d="M1048.21 416.6c76.14,-40.55 146.5,-94.92 195.79,-162.47 43.22,-59.21 70.25,-128.55 70.81,-207.61l0.86 -0.15c-0.54,79.3 -27.64,148.86 -70.98,208.25 -49.09,67.25 -118.99,121.45 -194.69,161.98l-1.79 0z"/>
   <path class="fil0" d="M1060.81 416.6c76.38,-40.54 147.02,-94.97 196.52,-162.64 43.67,-59.71 70.89,-129.74 71.09,-209.64l0.86 -0.04c-0.2,80.11 -27.48,150.31 -71.26,210.17 -49.28,67.37 -119.47,121.62 -195.42,162.15l-1.79 0z"/>
   <path class="fil0" d="M1073.39 416.6c76.65,-40.54 147.57,-95.02 197.27,-162.82 43.83,-59.79 71.16,-129.95 71.36,-210.02l0.86 -0.04c-0.2,80.28 -27.6,150.61 -71.54,210.55 -49.47,67.5 -119.93,121.81 -196.15,162.33l-1.8 0z"/>
   <path class="fil0" d="M1085.98 416.6c76.91,-40.53 148.11,-95.07 198,-162.99 44,-59.88 71.44,-130.17 71.64,-210.42l0.85 -0.03c-0.2,80.45 -27.7,150.91 -71.8,210.94 -49.68,67.61 -120.41,121.99 -196.88,162.5l-1.81 0z"/>
   <path class="fil0" d="M1098.58 416.6c77.17,-40.52 148.64,-95.12 198.73,-163.16 44.15,-59.97 71.7,-130.39 71.9,-210.81l0.86 -0.03c-0.2,80.62 -27.81,151.21 -72.08,211.32 -49.87,67.74 -120.88,122.18 -197.61,162.68l-1.8 0z"/>
   <path class="fil0" d="M1111.17 416.6c77.42,-40.51 149.18,-95.18 199.47,-163.34 44.31,-60.06 71.97,-130.61 72.17,-211.19l0.85 -0.03c-0.2,80.79 -27.92,151.51 -72.34,211.71 -50.07,67.86 -121.35,122.35 -198.34,162.85l-1.81 0z"/>
   <path class="fil0" d="M1123.76 416.6c77.68,-40.51 149.71,-95.23 200.2,-163.52 44.48,-60.14 72.25,-130.82 72.44,-211.57l0.86 -0.04c-0.2,80.96 -28.03,151.82 -72.62,212.11 -50.26,67.98 -121.82,122.53 -199.06,163.02l-1.82 0z"/>
   <path class="fil0" d="M1136.35 416.6c77.94,-40.5 150.25,-95.28 200.94,-163.69 44.64,-60.23 72.51,-131.04 72.71,-211.96l0.86 -0.04c-0.2,81.13 -28.15,152.12 -72.89,212.5 -50.46,68.1 -122.3,122.71 -199.81,163.19l-1.81 0z"/>
   <path class="fil0" d="M1148.93 416.6c78.21,-40.49 150.8,-95.33 201.69,-163.86 44.79,-60.32 72.78,-131.26 72.98,-212.35l0.85 -0.04c-0.2,81.3 -28.25,152.41 -73.15,212.88 -50.66,68.23 -122.78,122.9 -200.54,163.37l-1.83 0z"/>
   <path class="fil0" d="M1161.53 416.6c78.46,-40.48 151.33,-95.38 202.41,-164.03 44.91,-60.35 72.99,-131.32 73.25,-212.48l0.68 0.03 0.18 0.01c-0.28,81.33 -28.43,152.46 -73.43,212.93 -50.86,68.34 -123.24,123.07 -201.26,163.54l-1.83 0z"/>
   <path class="fil0" d="M1174.11 416.6c78.73,-40.47 151.87,-95.43 203.16,-164.2 44.86,-60.16 72.99,-130.89 73.51,-211.74l0.15 0 0.7 0.03c-0.53,81.03 -28.73,151.92 -73.68,212.2 -51.06,68.46 -123.72,123.25 -202,163.71l-1.84 0z"/>
   <path class="fil0" d="M1186.7 416.6c78.99,-40.47 152.41,-95.48 203.89,-164.38 44.84,-60 73.04,-130.54 73.78,-211.16l0.49 0.01 0.36 0c-0.75,80.81 -29.01,151.51 -73.95,211.65 -51.25,68.58 -124.19,123.43 -202.73,163.88l-1.84 0z"/>
   <path class="fil0" d="M1199.29 416.6c79.24,-40.45 152.95,-95.53 204.63,-164.55 44.88,-59.93 73.15,-130.37 74.04,-210.88l0.61 0 0.24 0c-0.89,80.7 -29.23,151.31 -74.21,211.37 -51.45,68.71 -124.67,123.62 -203.47,164.06l-1.84 0z"/>
   <path class="fil0" d="M1211.88 416.6c79.5,-40.45 153.49,-95.58 205.37,-164.72 44.98,-59.95 73.36,-130.44 74.3,-211.02l0.43 -0.01 0.43 -0.02c-0.95,80.78 -29.39,151.45 -74.48,211.54 -51.65,68.83 -125.15,123.8 -204.2,164.23l-1.85 0z"/>
   <path class="fil0" d="M1224.46 416.6c79.77,-40.44 154.03,-95.63 206.11,-164.89 44.99,-59.83 73.43,-130.17 74.57,-210.56l0.21 0 0.64 0.01c-1.14,80.58 -29.65,151.08 -74.74,211.04 -51.85,68.95 -125.62,123.98 -204.93,164.4l-1.86 0z"/>
   <path class="fil0" d="M1237.05 416.6c80.02,-40.43 154.57,-95.68 206.85,-165.07 45.05,-59.79 73.57,-130.08 74.83,-210.42l0.29 -0.01 0.56 -0.01c-1.26,80.55 -29.85,151.01 -75,210.94 -52.05,69.07 -126.1,124.15 -205.66,164.57l-1.87 0z"/>
   <path class="fil0" d="M1249.64 416.6c80.29,-40.42 155.11,-95.73 207.59,-165.24 45.17,-59.83 73.78,-130.18 75.09,-210.6l0.6 -0.03 0.26 0c-1.31,80.63 -30,151.16 -75.28,211.13 -52.24,69.19 -126.56,124.33 -206.39,164.74l-1.87 0z"/>
   <path class="fil0" d="M1262.23 416.6c80.55,-40.41 155.64,-95.78 208.32,-165.41 45.33,-59.91 74.05,-130.39 75.36,-210.97l0.07 -0.01 0.79 -0.03c-1.31,80.79 -30.11,151.45 -75.55,211.51 -52.43,69.31 -127.03,124.51 -207.11,164.91l-1.88 0z"/>
   <path class="fil0" d="M1274.82 416.6c80.8,-40.4 156.18,-95.83 209.06,-165.58 45.49,-60.01 74.33,-130.64 75.63,-211.42l0.86 -0.04c-1.3,80.99 -30.21,151.8 -75.82,211.96 -52.64,69.43 -127.51,124.69 -207.86,165.08l-1.87 0z"/>
   <path class="fil0" d="M1287.41 416.6c81.06,-40.39 156.72,-95.88 209.79,-165.75 45.66,-60.11 74.61,-130.88 75.91,-211.84l0.86 -0.04c-1.3,81.17 -30.32,152.12 -76.1,212.38 -52.83,69.55 -127.98,124.86 -208.58,165.25l-1.88 0z"/>
   <path class="fil0" d="M1299.99 416.6c81.32,-40.38 157.26,-95.93 210.54,-165.92 45.8,-60.18 74.85,-131.04 76.17,-212.13l0.86 -0.02c-1.33,81.29 -30.45,152.33 -76.36,212.65 -53.03,69.67 -128.47,125.04 -209.33,165.42l-1.88 0z"/>
   <path class="fil0" d="M1312.58 416.6c81.58,-40.38 157.8,-95.98 211.27,-166.09 45.9,-60.18 75.04,-131.06 76.44,-212.18l0.86 0c-1.41,81.31 -30.62,152.36 -76.62,212.68 -53.23,69.79 -128.94,125.22 -210.06,165.59l-1.89 0z"/>
   <path class="fil0" d="M1325.16 416.6c81.85,-40.36 158.34,-96.03 212.02,-166.26 45.92,-60.1 75.13,-130.87 76.69,-211.85l0.86 0.03c-1.58,81.16 -30.86,152.09 -76.88,212.32 -53.43,69.91 -129.41,125.4 -210.79,165.76l-1.9 0z"/>
   <path class="fil0" d="M1337.75 416.6c82.1,-40.35 158.88,-96.08 212.75,-166.44 45.85,-59.87 75.11,-130.36 76.95,-210.99l0.85 0.06c-1.86,80.81 -31.18,151.44 -77.12,211.44 -53.63,70.03 -129.89,125.58 -211.53,165.93l-1.9 0z"/>
   <path class="fil0" d="M1350.34 416.6c82.36,-40.35 159.42,-96.12 213.49,-166.61 45.63,-59.48 74.9,-129.44 77.16,-209.44l0.85 0.11 0.01 0c-2.3,80.15 -31.63,150.24 -77.35,209.84 -53.82,70.15 -130.36,125.76 -212.25,166.1l-1.91 0z"/>
   <path class="fil0" d="M1362.93 416.6c82.61,-40.33 159.95,-96.17 214.22,-166.78 45.25,-58.86 74.47,-127.98 77.35,-206.95l0.85 0.19c-2.93,79.08 -32.21,148.32 -77.52,207.27 -54.02,70.27 -130.84,125.93 -212.99,166.27l-1.91 0z"/>
   <line class="fil1" x1="1667.94" y1="45.93" x2="1668.06" y2= "45.95" />
   <path class="fil0" d="M1388.09 416.6c83.14,-40.32 161.04,-96.27 215.71,-167.12 44.34,-57.45 73.4,-124.7 77.6,-201.36l0.09 0.01 0.76 0.1c-4.23,76.81 -33.35,144.2 -77.78,201.76 -54.41,70.51 -131.78,126.29 -214.44,166.61l-1.94 0z"/>
   <path class="fil0" d="M1400.68 416.6c83.4,-40.31 161.58,-96.32 216.45,-167.29 44.14,-57.09 73.2,-123.87 77.76,-199.94l0.31 0.02 0.55 0.03c-4.58,76.25 -33.71,143.18 -77.95,200.4 -54.61,70.64 -132.26,126.47 -215.19,166.78l-1.93 0z"/>
   <path class="fil0" d="M1413.26 416.6c83.67,-40.3 162.13,-96.37 217.19,-167.46 44.11,-56.93 73.21,-123.51 77.97,-199.34l0.86 0c-4.77,76.02 -33.94,142.77 -78.16,199.85 -54.81,70.76 -132.74,126.65 -215.92,166.95l-1.94 0z"/>
   <path class="fil0" d="M1425.84 416.6c83.93,-40.29 162.67,-96.42 217.94,-167.63 44.2,-56.95 73.39,-123.55 78.22,-199.42l0.86 -0.03 0 0c-4.83,76.08 -34.1,142.86 -78.41,199.96 -55.01,70.88 -133.22,126.83 -216.66,167.12l-1.95 0z"/>
   <path class="fil0" d="M1438.43 416.6c84.19,-40.28 163.2,-96.46 218.67,-167.8 44.39,-57.08 73.7,-123.86 78.51,-199.96l0.5 -0.04 0.36 -0.02c-4.81,76.32 -34.19,143.3 -78.7,200.53 -55.21,71 -133.69,127.01 -217.39,167.29l-1.95 0z"/>
   <path class="fil0" d="M1451.02 416.6c84.44,-40.27 163.74,-96.51 219.41,-167.97 44.62,-57.27 74.06,-124.33 78.8,-200.77l0.41 -0.03 0.45 -0.04c-4.73,76.67 -34.25,143.92 -78.99,201.35 -55.41,71.12 -134.17,127.19 -218.13,167.46l-1.95 0z"/>
   <path class="fil0" d="M1463.6 416.6c84.71,-40.26 164.29,-96.56 220.15,-168.14 44.88,-57.49 74.46,-124.84 79.11,-201.65l0.32 -0.02 0.54 -0.04c-4.65,77.03 -34.3,144.58 -79.3,202.23 -55.61,71.23 -134.65,127.36 -218.86,167.62l-1.96 0z"/>
   <path class="fil0" d="M1476.19 416.61c84.96,-40.26 164.82,-96.62 220.89,-168.31 45.1,-57.68 74.82,-125.3 79.4,-202.44l0.11 0 0.75 -0.05c-4.58,77.36 -34.37,145.16 -79.6,203 -55.8,71.36 -135.11,127.54 -219.58,167.8l-1.97 0z"/>
   <path class="fil0" d="M1488.77 416.61c85.23,-40.25 165.36,-96.67 221.63,-168.48 45.3,-57.82 75.13,-125.61 79.69,-202.99l0.47 -0.02 0.39 -0.01c-4.57,77.59 -34.47,145.57 -79.88,203.53 -56,71.48 -135.6,127.72 -220.33,167.97l-1.97 0z"/>
   <path class="fil0" d="M1501.36 416.61c85.48,-40.24 165.9,-96.71 222.37,-168.65 45.41,-57.86 75.34,-125.74 79.94,-203.21l0.6 -0.01 0.26 0c-4.61,77.68 -34.61,145.73 -80.14,203.73 -56.2,71.6 -136.07,127.9 -221.05,168.14l-1.98 0z"/>
   <path class="fil0" d="M1513.94 416.61c85.74,-40.23 166.44,-96.76 223.11,-168.82 45.42,-57.76 75.4,-125.49 80.17,-202.8l0.85 0.07c-4.79,77.48 -34.84,145.36 -80.35,203.24 -56.4,71.72 -136.55,128.08 -221.79,168.31l-1.99 0z"/>
   <path class="fil0" d="M1526.53 416.6c86,-40.21 166.98,-96.8 223.84,-168.98 45.05,-57.18 74.97,-124.15 80.27,-200.51l0.84 0.2c-5.34,76.48 -35.32,143.55 -80.44,200.82 -56.6,71.84 -137.02,128.26 -222.53,168.47l-1.98 0z"/>
   <path class="fil0" d="M1539.11 416.6c86.26,-40.2 167.52,-96.85 224.59,-169.15 44.27,-56.09 73.98,-121.6 80.18,-196.17l0.01 0.01 0.81 0.32c-6.26,74.63 -36.02,140.21 -80.33,196.36 -56.8,71.96 -137.51,128.43 -223.27,168.63l-1.99 0z"/>
   <path class="fil0" d="M1551.7 416.6c86.52,-40.19 168.06,-96.89 225.32,-169.32 43.09,-54.49 72.44,-117.9 79.83,-189.86l0.81 0.45c-7.47,71.98 -36.86,135.4 -79.97,189.93 -56.99,72.07 -137.98,128.6 -224,168.8l-1.99 0z"/>
   <path class="fil0" d="M1564.28 416.6c86.78,-40.17 168.6,-96.94 226.07,-169.48 41.55,-52.45 70.37,-113.16 79.13,-181.81l0.79 0.55c-8.86,68.63 -37.71,129.32 -79.26,181.77 -57.19,72.2 -138.45,128.78 -224.73,168.97l-2 0z"/>
   <path class="fil0" d="M1576.86 416.6c87.04,-40.17 169.15,-96.99 226.81,-169.65 39.7,-50.02 67.81,-107.55 77.99,-172.33l0.77 0.63c-10.28,64.72 -38.42,122.21 -78.1,172.21 -57.39,72.32 -138.92,128.96 -225.45,169.14l-2.02 0z"/>
   <path class="fil0" d="M1589.44 416.6c87.31,-40.16 169.69,-97.03 227.56,-169.82 37.6,-47.29 64.84,-101.3 76.37,-161.81l0.73 0.68c-11.61,60.43 -38.87,114.39 -76.44,161.65 -57.59,72.43 -139.41,129.14 -226.19,169.3l-2.03 0z"/>
   <path class="fil0" d="M1602.03 416.6c87.56,-40.15 170.23,-97.08 228.29,-169.99 35.34,-44.37 61.56,-94.65 74.25,-150.68l0.17 0.18 0.53 0.55c-12.76,55.93 -38.99,106.15 -74.29,150.47 -57.79,72.56 -139.88,129.31 -226.93,169.47l-2.02 0z"/>
   <path class="fil0" d="M1614.61 416.6c87.82,-40.13 170.77,-97.13 229.04,-170.15 32.97,-41.34 58.05,-87.82 71.63,-139.29l0.68 0.74c-13.65,51.37 -38.72,97.78 -71.65,139.06 -57.99,72.68 -140.36,129.5 -227.67,169.64l-2.03 0z"/>
   <path class="fil0" d="M1627.2 416.6c88.08,-40.13 171.3,-97.17 229.77,-170.33 30.59,-38.27 54.4,-80.95 68.59,-127.93l0.66 0.74c-14.24,46.88 -38.04,89.49 -68.59,127.71 -58.19,72.8 -140.83,129.67 -228.4,169.81l-2.03 0z"/>
   <path class="fil0" d="M1639.78 416.6c88.34,-40.11 171.84,-97.22 230.51,-170.49 28.22,-35.24 50.69,-74.23 65.19,-116.85l0.43 0.47 0.22 0.24c-14.54,42.55 -37,81.47 -65.18,116.66 -58.38,72.92 -141.31,129.84 -229.13,169.97l-2.04 0z"/>
   <path class="fil0" d="M1652.37 416.6c88.59,-40.1 172.38,-97.27 231.25,-170.66 25.89,-32.28 46.96,-67.71 61.5,-106.21l0.09 0.09 0.56 0.6c-14.57,38.43 -35.63,73.8 -61.49,106.04 -58.59,73.04 -141.79,130.02 -229.87,170.14l-2.04 0z"/>
   <path class="fil0" d="M1664.95 416.6c88.86,-40.09 172.92,-97.31 231.99,-170.83 23.66,-29.44 43.3,-61.49 57.64,-96.11l0 0.01 0.64 0.65c-14.36,34.56 -33.99,66.57 -57.62,95.98 -58.78,73.15 -142.26,130.19 -230.6,170.3l-2.05 0z"/>
   <path class="fil0" d="M1677.53 416.6c89.12,-40.08 173.47,-97.36 232.73,-170.99 21.53,-26.74 39.74,-55.64 53.67,-86.65l0.17 0.15 0.48 0.47c-13.95,30.97 -32.16,59.83 -53.66,86.55 -58.98,73.27 -142.74,130.37 -231.33,170.47l-2.06 0z"/>
   <path class="fil0" d="M1690.11 416.6c89.38,-40.07 174.01,-97.41 233.48,-171.16 19.51,-24.2 36.31,-50.17 49.69,-77.88l0.52 0.46 0.14 0.12c-13.39,27.68 -30.19,53.63 -49.69,77.82 -59.18,73.4 -143.22,130.56 -232.08,170.64l-2.06 0z"/>
   <path class="fil0" d="M1702.69 416.6c89.64,-40.06 174.55,-97.45 234.22,-171.33 17.65,-21.85 33.09,-45.14 45.79,-69.86l0.12 0.1 0.56 0.43c-12.72,24.71 -28.16,48.01 -45.81,69.86 -59.38,73.51 -143.69,130.72 -232.81,170.8l-2.07 0z"/>
   <path class="fil0" d="M1715.28 416.6c89.89,-40.05 175.08,-97.5 234.95,-171.49 16,-19.78 30.19,-40.74 42.18,-62.86l0.73 0.43c-12.01,22.15 -26.22,43.15 -42.25,62.95 -59.57,73.63 -144.17,130.9 -233.54,170.97l-2.07 0z"/>
   <g>
    <path class="fil0" d="M1727.86 416.6c90.15,-40.04 175.63,-97.54 235.7,-171.66 14.71,-18.15 27.89,-37.29 39.25,-57.42l-274.95 229.08zm275.74 -228.76c-11.4,20.2 -24.63,39.41 -39.38,57.62 -59.78,73.76 -144.65,131.08 -234.28,171.14l-2.08 0 275.74 -228.76zm46.28 -172.79l-0.86 -0.15 0 0.03 0.86 0.15 0 -0.03z"/>
   </g>
   <path class="fil0" d="M1740.44 416.6c90.42,-40.03 176.17,-97.59 236.44,-171.83 13.76,-16.94 26.19,-34.76 37.04,-53.44l0.85 0.23c-10.91,18.78 -23.4,36.7 -37.23,53.74 -59.98,73.87 -145.12,131.25 -235.01,171.3l-2.09 0zm323.01 -399.18l-0.85 -0.14 -0.01 0.03 0.86 0.15 0 -0.04z"/>
   <g>
    <path class="fil0" d="M1753.02 416.6c90.68,-40.02 176.71,-97.64 237.19,-171.99 13.13,-16.16 25.06,-33.1 35.57,-50.82l-272.76 222.81zm273.66 -222.69c-10.57,17.87 -22.58,34.95 -35.82,51.22 -60.18,74 -145.6,131.43 -235.75,171.47l-2.09 0 273.66 -222.69zm50.32 -174.14l-0.86 -0.15 0 0.03 0.86 0.15 0 -0.03z"/>
   </g>
   <path class="fil0" d="M1765.61 416.6c90.93,-40.01 177.25,-97.68 237.92,-172.16 12.83,-15.75 24.51,-32.26 34.85,-49.5l0.07 0 0.89 0.03c-10.42,17.43 -22.2,34.1 -35.16,50 -60.37,74.11 -146.08,131.6 -236.48,171.63l-2.09 0zm324.92 -394.54l-0.85 -0.15 0 0.04 0.69 0.11 0.16 0.03 0 -0.03z"/>
   <path class="fil0" d="M1778.18 416.6c91.2,-39.99 177.8,-97.72 238.67,-172.33 12.84,-15.73 24.53,-32.22 34.88,-49.44l0.99 -0.06 0.03 0c-10.44,17.44 -22.26,34.12 -35.24,50.03 -60.58,74.23 -146.56,131.78 -237.23,171.8l-2.1 0zm325.86 -392.31l-0.86 -0.14 0 0.03 0 0 0.86 0.14 0 -0.03z"/>
   <path class="fil0" d="M1790.77 416.6c91.46,-39.98 178.33,-97.77 239.41,-172.49 13.15,-16.1 25.11,-32.98 35.66,-50.64l1.07 -0.15c-10.66,17.91 -22.76,35.01 -36.08,51.31 -60.77,74.36 -147.04,131.96 -237.96,171.97l-2.1 0zm326.75 -390.15l-0.85 -0.13 0 0.03 0.85 0.13 0 -0.03z"/>
   <path class="fil0" d="M1803.34 416.6c91.72,-39.97 178.88,-97.82 240.16,-172.66 13.77,-16.82 26.23,-34.51 37.15,-53.04l1.09 -0.23 0.03 -0.01c-11.03,18.81 -23.65,36.75 -37.62,53.81 -60.97,74.47 -147.51,132.14 -238.68,172.13l-2.13 0zm327.66 -388.05l-0.86 -0.13 0 0.03 0.85 0.13 0.01 -0.03z"/>
   <path class="fil0" d="M1815.93 416.6c91.97,-39.96 179.42,-97.86 240.89,-172.82 14.69,-17.91 27.89,-36.8 39.32,-56.65l1.16 -0.32c-11.55,20.15 -24.92,39.32 -39.82,57.49 -61.17,74.59 -147.99,132.31 -239.43,172.3l-2.12 0zm328.52 -386.04l-0.85 -0.13 0 0.03 0.85 0.13 0 -0.03z"/>
   <path class="fil0" d="M1828.51 416.6c92.24,-39.95 179.96,-97.91 241.64,-172.99 15.88,-19.34 30.04,-39.81 42.1,-61.41l1.19 -0.4c-12.19,21.93 -26.53,42.72 -42.64,62.34 -61.37,74.71 -148.47,132.49 -240.16,172.46l-2.13 0zm329.38 -384.13l-0.85 -0.11 0 0.02 0.85 0.12 0 -0.03z"/>
   <path class="fil0" d="M1841.09 416.6c92.5,-39.94 180.5,-97.95 242.38,-173.16 17.34,-21.08 32.64,-43.51 45.4,-67.28l1.21 -0.48c-12.88,24.14 -28.37,46.91 -45.96,68.29 -61.57,74.83 -148.95,132.67 -240.9,172.63l-2.13 0zm330.24 -382.31l-0.85 -0.12 0 0.03 0.85 0.11 0 -0.02z"/>
   <path class="fil0" d="M1853.67 416.6c92.76,-39.93 181.04,-98 243.12,-173.32 19.05,-23.12 35.63,-47.87 49.12,-74.21l0 0 1.23 -0.54c-13.6,26.74 -30.38,51.84 -49.7,75.28 -61.77,74.95 -149.42,132.84 -241.64,172.79l-2.13 0zm331.08 -380.63l-0.85 -0.1 0 0.03 0.85 0.1 0 -0.03z"/>
   <path class="fil0" d="M1866.25 416.6c93.02,-39.92 181.59,-98.04 243.86,-173.49 20.98,-25.41 38.98,-52.79 53.16,-82.1l1.22 -0.61c-14.27,29.74 -32.47,57.5 -53.72,83.24 -61.97,75.07 -149.91,133.02 -242.38,172.96l-2.14 0zm331.93 -379.07l-0.85 -0.09 0 0.02 0.85 0.09 0 -0.02z"/>
   <path class="fil0" d="M1878.83 416.6c93.28,-39.9 182.13,-98.09 244.61,-173.65 23.09,-27.94 42.59,-58.25 57.37,-90.89l1.22 -0.66c-14.87,33.09 -34.56,63.8 -57.94,92.08 -62.17,75.19 -150.39,133.19 -243.12,173.12l-2.14 0zm332.78 -377.67l-0.85 -0.08 -0.01 0.01 0.85 0.09 0.01 -0.02z"/>
   <g>
    <path class="fil0" d="M1891.41 416.6c93.54,-39.89 182.67,-98.13 245.35,-173.82 25.38,-30.65 46.43,-64.17 61.68,-100.48l-307.03 274.3zm308.21 -274.98l0.02 -0.02c-15.31,36.79 -36.56,70.71 -62.23,101.71 -62.37,75.31 -150.86,133.37 -243.85,173.29l-2.15 0 308.21 -274.98zm25.42 -101.46l-0.85 -0.07 0 0.01 0.85 0.07 0 -0.01z"/>
   </g>
   <path class="fil0" d="M1903.99 416.6c93.8,-39.88 183.21,-98.18 246.09,-173.98 27.82,-33.54 50.44,-70.5 65.96,-110.81l1.16 -0.72 0.03 -0.02c-15.56,40.8 -38.38,78.19 -66.5,112.08 -62.56,75.43 -151.34,133.54 -244.58,173.45l-2.16 0zm334.49 -375.4l-0.85 -0.06 0 0.01 0.85 0.06 0 -0.01z"/>
   <path class="fil0" d="M1916.57 416.6c94.06,-39.87 183.75,-98.22 246.84,-174.15 30.37,-36.56 54.57,-77.2 70.12,-121.81l1.17 -0.77c-15.57,45.12 -39.97,86.19 -70.64,123.11 -62.77,75.55 -151.82,133.72 -245.33,173.62l-2.16 0zm335.36 -374.57l-0.85 -0.04 0 0.01 0.85 0.05 0 -0.02z"/>
   <path class="fil0" d="M1929.14 416.6c94.32,-39.86 184.3,-98.27 247.59,-174.32 32.7,-39.3 58.28,-83.31 73.64,-131.91l0.02 -0.01 0.01 0 0.02 -0.01 0.01 -0.01 0.02 -0.01 0.02 0 0.01 -0.01 0.02 -0.01 0.01 -0.01 0.02 0 0.02 -0.01 0.01 -0.01 0.02 -0.01 0.02 0 0.66 -0.31 0.02 -0.01 0.01 -0.01 0.02 -0.01 0.02 0 0.01 -0.01 0.02 -0.01 0.02 -0.01 0.01 0 0.02 -0.01c-15.37,48.99 -41.09,93.35 -74.03,132.93 -62.97,75.66 -152.3,133.89 -246.06,173.78l-2.18 0zm336.27 -373.94l-0.86 -0.03 0 0 0.23 0.01 0.63 0.03 0 -0.01z"/>
   <path class="fil0" d="M1941.72 416.6c94.59,-39.85 184.85,-98.31 248.33,-174.48 34,-40.79 60.31,-86.66 75.51,-137.46l0.05 -0.02 0.92 -0.27c-15.21,51.13 -41.64,97.27 -75.83,138.29 -63.17,75.78 -152.78,134.07 -246.79,173.94l-2.19 0zm337.18 -373.53l-0.85 -0.02 0 0 0.85 0.02 0 0z"/>
   <path class="fil0" d="M1954.3 416.6c94.84,-39.83 185.39,-98.36 249.08,-174.64 34.81,-41.71 61.6,-88.74 76.68,-140.92l0.94 -0.19c-15.09,52.46 -41.99,99.73 -76.98,141.64 -63.37,75.91 -153.25,134.25 -247.53,174.11l-2.19 0zm338.11 -373.32l-0.86 -0.01 0 0 0.86 0.01 0 0z"/>
   <path class="fil0" d="M1966.88 416.6c95.1,-39.82 185.93,-98.4 249.82,-174.81 35.38,-42.32 62.51,-90.12 77.52,-143.23l0.23 -0.03 0.69 -0.1c-15.03,53.37 -42.25,101.39 -77.8,143.9 -63.56,76.02 -153.73,134.42 -248.26,174.27l-2.2 0z"/>
   <path class="fil0" d="M1979.46 416.6c95.36,-39.81 186.47,-98.44 250.56,-174.97 35.8,-42.75 63.16,-91.08 78.13,-144.83l0.91 -0.09c-14.99,53.99 -42.45,102.53 -78.39,145.45 -63.77,76.15 -154.22,134.6 -249.02,174.44l-2.19 0z"/>
   <path class="fil0" d="M1992.04 416.6c95.62,-39.79 187.01,-98.49 251.3,-175.14 36.1,-43.03 63.65,-91.74 78.61,-145.94l0.9 -0.07c-14.98,54.44 -42.62,103.34 -78.86,146.55 -63.97,76.26 -154.7,134.77 -249.75,174.6l-2.2 0z"/>
   <path class="fil0" d="M2004.62 416.59c95.88,-39.77 187.55,-98.52 252.04,-175.29 36.33,-43.25 64.04,-92.22 79.01,-146.74l0.9 -0.05c-15,54.75 -42.79,103.91 -79.26,147.32 -64.16,76.39 -155.18,134.95 -250.49,174.76l-2.2 0z"/>
   <path class="fil0" d="M2017.19 416.59c96.15,-39.76 188.1,-98.57 252.8,-175.46 36.52,-43.4 64.35,-92.58 79.34,-147.35l0.9 -0.05c-15.01,55 -42.94,104.37 -79.6,147.94 -64.36,76.5 -155.65,135.12 -251.23,174.92l-2.21 0z"/>
   <path class="fil0" d="M2029.77 416.59c96.4,-39.75 188.64,-98.61 253.54,-175.62 36.7,-43.56 64.66,-92.92 79.68,-147.92l0.08 0 0.81 -0.05c-15.04,55.23 -43.09,104.79 -79.93,148.51 -64.56,76.62 -156.13,135.29 -251.97,175.08l-2.21 0z"/>
   <path class="fil0" d="M2042.35 416.59c96.67,-39.74 189.19,-98.66 254.28,-175.79 36.91,-43.73 65,-93.32 80.04,-148.59l0.36 -0.03 0.54 -0.04c-15.05,55.51 -43.24,105.3 -80.29,149.2 -64.77,76.74 -156.62,135.47 -252.71,175.25l-2.22 0z"/>
   <path class="fil0" d="M2054.93 416.59c96.92,-39.72 189.72,-98.7 255.02,-175.95 37.21,-44.01 65.48,-93.97 80.5,-149.68l0.04 0 0.87 -0.11c-15.03,55.97 -43.41,106.14 -80.76,150.33 -64.97,76.86 -157.1,135.65 -253.44,175.41l-2.23 0z"/>
   <path class="fil0" d="M2067.5 416.59c97.19,-39.71 190.28,-98.74 255.78,-176.11 37.75,-44.6 66.34,-95.3 81.26,-151.91l0.02 0 0.01 -0.01 0.02 0 0.01 0 0.02 -0.01 0.01 0 0.02 -0.01 0.01 0 0.02 0 0.01 -0.01 0.02 0 0.01 0 0 0 0.02 -0.01 0.01 0 0.02 -0.01 0.01 0 0.02 0 0.01 -0.01 0.02 0 0.01 -0.01 0.02 0 0.01 0 0.02 -0.01 0.01 0 0.02 0 0.01 -0.01 0.03 -0.01 0.02 0 0.01 0 0.01 -0.01 0.02 0 0.01 -0.01 0.09 -0.02 0.02 0 0.01 -0.01 0.02 0 0.08 -0.02 0.02 -0.01 0.01 0 0.02 0 0.01 -0.01 0.02 0 0.03 -0.01 0.01 0 0.02 -0.01 0.01 0 0.02 -0.01 0 0 0.01 0 0.02 0 0.01 -0.01 0.01 0 0.02 -0.01c-14.93,56.92 -43.63,107.88 -81.57,152.69 -65.17,76.98 -157.57,135.83 -254.18,175.58l-2.24 0z"/>
   <path class="fil0" d="M2080.08 416.59c97.45,-39.7 190.82,-98.78 256.52,-176.28 39.28,-46.33 68.67,-99.24 83.13,-158.53l0.01 -0.01 0.02 -0.01 0.01 0 0.02 -0.01 0.01 -0.01 0.02 0 0.01 -0.01 0.02 -0.01 0.01 0 0.02 -0.01 0.02 -0.01 0.01 -0.01 0.02 0 0.01 -0.01 0.02 -0.01 0.06 -0.02 0.01 -0.01 0.02 -0.01 0.01 -0.01 0.02 0 0.01 -0.01 0.02 -0.01 0.02 0 0.01 -0.01 0.02 -0.01 0.01 0 0.02 -0.01 0.01 -0.01 0.02 -0.01 0.01 0 0.02 -0.01 0.01 -0.01 0.02 0 0.03 -0.02 0.02 0 0.15 -0.07 0.01 -0.01 0.03 -0.01 0.02 -0.01 0.02 -0.01 0.01 0 0.02 -0.01 0.01 -0.01 0.02 0 0.01 -0.01 0.02 -0.01 0.01 0 0.02 -0.01 0.01 -0.01 0 0 0.02 -0.01c-14.44,59.68 -43.96,112.93 -83.47,159.52 -65.36,77.1 -158.06,136 -254.92,175.74l-2.24 0z"/>
   <path class="fil0" d="M2092.65 416.59c97.71,-39.68 191.36,-98.83 257.27,-176.44 40.32,-47.49 70.26,-101.91 84.38,-163.01l0.91 -0.17c-14.12,61.39 -44.16,116.04 -84.65,163.72 -65.56,77.22 -158.53,136.17 -255.66,175.9l-2.25 0z"/>
   <path class="fil0" d="M2105.23 416.59c97.97,-39.67 191.91,-98.87 258.01,-176.61 40.62,-47.76 70.73,-102.53 84.81,-164.06l0.02 0 0.85 0.01c-14.1,61.74 -44.29,116.68 -85.03,164.59 -65.77,77.34 -159.02,136.35 -256.4,176.07l-2.26 0zm349.93 -376.43l-0.86 0 0 0 0.86 0 0 0z"/>
   <path class="fil0" d="M2117.8 416.59c98.23,-39.66 192.46,-98.91 258.77,-176.77 40.41,-47.45 70.45,-101.81 84.72,-162.86l0.83 0.13 0.01 0c-14.3,61.2 -44.41,115.71 -84.92,163.27 -65.97,77.46 -159.5,136.52 -257.14,176.23l-2.27 0zm350.87 -376.25l-0.85 -0.02 -0.01 0.01 0.2 0 0.66 0.02 0 -0.01z"/>
   <path class="fil0" d="M2130.39 416.59c98.48,-39.65 192.99,-98.96 259.49,-176.93 39.85,-46.72 69.65,-100.14 84.24,-160.05l0 0.01 0.76 0.2 0.06 0.01c-14.63,60.03 -44.49,113.56 -84.41,160.37 -66.17,77.57 -159.98,136.7 -257.88,176.39l-2.26 0zm351.76 -375.85l-0.86 -0.03 0 0.01 0.27 0.01 0.58 0.02 0.01 -0.01z"/>
   <path class="fil0" d="M2142.96 416.59c98.75,-39.63 193.53,-99 260.25,-177.1 39.01,-45.66 68.42,-97.74 83.41,-156.02l0.8 0.28c-15.03,58.38 -44.5,110.54 -83.57,156.29 -66.37,77.69 -160.46,136.87 -258.62,176.55l-2.27 0zm352.63 -375.21l-0.85 -0.05 -0.01 0.01 0.86 0.05 0 -0.01z"/>
   <path class="fil0" d="M2155.53 416.59c99.02,-39.62 194.09,-99.04 261,-177.26 37.97,-44.38 66.87,-94.82 82.29,-151.13l0.26 0.12 0.53 0.22c-15.46,56.38 -44.42,106.89 -82.44,151.33 -66.57,77.82 -160.94,137.05 -259.36,176.72l-2.28 0zm353.46 -374.31l-0.85 -0.07 0 0.02 0.85 0.06 0 -0.01z"/>
   <path class="fil0" d="M2168.11 416.59c99.27,-39.61 194.63,-99.09 261.74,-177.42 36.77,-42.92 65.07,-91.51 80.89,-145.59l0.77 0.37c-15.86,54.14 -44.2,102.79 -81.02,145.76 -66.77,77.93 -161.42,137.22 -260.1,176.88l-2.28 0zm354.25 -373.13l-0.85 -0.08 0 0.02 0.84 0.08 0.01 -0.02z"/>
   <path class="fil0" d="M2180.69 416.59c99.53,-39.6 195.16,-99.13 262.48,-177.59 35.48,-41.34 63.09,-87.95 79.26,-139.66l0.77 0.39c-16.22,51.77 -43.87,98.42 -79.39,139.82 -66.96,78.05 -161.9,137.39 -260.84,177.04l-2.28 0zm354.97 -371.64l-0.84 -0.11 -0.01 0.03 0.82 0.1 0.03 0 0 -0.02z"/>
   <path class="fil0" d="M2193.27 416.59c99.79,-39.58 195.71,-99.17 263.23,-177.75 34.09,-39.67 60.93,-84.19 77.39,-133.43l0.68 0.38 0.08 0.04c-16.5,49.28 -43.39,93.84 -77.51,133.55 -67.17,78.18 -162.39,137.58 -261.59,177.21l-2.28 0zm355.64 -369.84l-0.84 -0.13 0 0.03 0.84 0.12 0 -0.02z"/>
   <path class="fil0" d="M2205.84 416.59c100.05,-39.57 196.26,-99.21 263.98,-177.91 32.62,-37.91 58.63,-80.25 75.28,-126.89l0.6 0.34 0.15 0.09c-16.69,46.68 -42.74,89.05 -75.39,127 -67.37,78.29 -162.87,137.75 -262.32,177.37l-2.3 0zm356.26 -367.73l-0.84 -0.15 -0.01 0.03 0.84 0.15 0.01 -0.03z"/>
   <path class="fil0" d="M2218.41 416.59c100.32,-39.56 196.8,-99.26 264.73,-178.08 31.07,-36.05 56.17,-76.11 72.92,-120.07l0.58 0.36 0.15 0.1c-16.79,43.99 -41.92,84.07 -73.01,120.16 -67.58,78.41 -163.35,137.92 -263.06,177.53l-2.31 0zm356.8 -365.34l-0.84 -0.16 0 0.03 0.84 0.16 0 -0.03z"/>
   <path class="fil0" d="M2230.99 416.59c100.57,-39.54 197.34,-99.3 265.47,-178.24 29.44,-34.11 53.53,-71.81 70.27,-113l0.64 0.42 0.08 0.06c-16.77,41.21 -40.89,78.93 -70.35,113.06 -67.77,78.53 -163.83,138.1 -263.8,177.7l-2.31 0zm357.28 -362.73l-0.84 -0.17 -0.01 0.03 0.84 0.18 0.01 -0.04z"/>
   <path class="fil0" d="M2243.56 416.59c100.84,-39.53 197.89,-99.34 266.22,-178.4 27.73,-32.08 50.73,-67.34 67.33,-105.69l0.7 0.5c-16.63,38.37 -39.65,73.63 -67.39,105.73 -67.97,78.65 -164.31,138.28 -264.54,177.86l-2.32 0zm357.71 -360.02l-0.83 -0.17 -0.01 0.04 0.83 0.17 0.01 -0.04z"/>
   <path class="fil0" d="M2256.14 416.59c101.09,-39.52 198.43,-99.38 266.96,-178.57 25.94,-29.96 47.75,-62.7 64.08,-98.15l0.69 0.52c-16.35,35.46 -38.18,68.2 -64.13,98.18 -68.17,78.77 -164.79,138.45 -265.28,178.02l-2.32 0zm358.11 -357.35l-0.84 -0.17 0 0.04 0.83 0.16 0.01 -0.03z"/>
   <path class="fil0" d="M2268.71 416.59c101.36,-39.5 198.98,-99.43 267.71,-178.73 24.07,-27.77 44.61,-57.92 60.51,-90.4l0.67 0.54c-15.92,32.48 -36.46,62.63 -60.54,90.41 -68.37,78.89 -165.28,138.62 -266.03,178.18l-2.32 0zm358.54 -354.91l-0.84 -0.15 -0.01 0.03 0.84 0.15 0.01 -0.03z"/>
   <path class="fil0" d="M2281.28 416.59c101.62,-39.49 199.53,-99.47 268.47,-178.89 22.13,-25.5 41.27,-53 56.59,-82.47l0.17 0.15 0.49 0.42c-15.34,29.46 -34.49,56.95 -56.61,82.45 -68.58,79 -165.77,138.79 -266.78,178.34l-2.33 0zm359.02 -352.85l-0.84 -0.12 -0.01 0.03 0.85 0.12 0 -0.03z"/>
   <path class="fil0" d="M2293.86 416.59c101.88,-39.48 200.07,-99.51 269.21,-179.05 20.11,-23.14 37.76,-47.94 52.33,-74.35l0.41 0.37 0.24 0.21c-14.58,26.4 -32.24,51.18 -52.34,74.31 -68.78,79.13 -166.24,138.97 -267.51,178.51l-2.34 0zm359.58 -351.27l-0.85 -0.08 -0.01 0.01 0.85 0.09 0.01 -0.02z"/>
   <path class="fil0" d="M2306.43 416.59c102.14,-39.46 200.62,-99.55 269.96,-179.22 18.02,-20.7 34.07,-42.73 47.72,-66.07l0.62 0.6c-13.64,23.32 -29.69,45.33 -47.7,66.02 -68.98,79.25 -166.73,139.15 -268.26,178.67l-2.34 0zm360.25 -350.23l-0.85 -0.05 -0.01 0.01 0.86 0.05 0 -0.01z"/>
   <path class="fil0" d="M2319.01 416.59c102.4,-39.45 201.16,-99.59 270.7,-179.38 15.86,-18.19 30.2,-37.41 42.72,-57.64l0.12 0.12 0.49 0.5 0 0c-12.52,20.2 -26.85,39.39 -42.69,57.57 -69.18,79.37 -167.21,139.32 -269,178.83l-2.34 0zm361.04 -349.72l-0.87 -0.02 0 0 0.85 0.02 0.02 0 0 0z"/>
   <path class="fil0" d="M2331.58 416.59c102.66,-39.44 201.71,-99.64 271.45,-179.54 13.67,-15.66 26.2,-32.07 37.43,-49.23l0.01 0.01 0.01 0.01 0.01 0.01 0.01 0.01 0.01 0.01 0.01 0 0 0.01 0.01 0.01 0.01 0.01 0.01 0.01 0.01 0.01 0.01 0.01 0.01 0.01 0.02 0.02 0.01 0.01 0.01 0.01 0.01 0.01 0.02 0.01 0.01 0.01 0.01 0.01 0.36 0.34 0.01 0.01 0.01 0.01 0.01 0.01 0.01 0 0.01 0.01c-11.23,17.15 -23.76,33.55 -37.41,49.2 -69.38,79.48 -167.69,139.49 -269.74,178.99l-2.35 0z"/>
   <path class="fil0" d="M2344.15 416.59c102.93,-39.42 202.26,-99.68 272.2,-179.7 11.83,-13.53 22.81,-27.63 32.83,-42.28 0.2,0.12 0.39,0.24 0.58,0.36l0.02 0 0.03 0.02 0.01 0.01 0.01 0.01 0.01 0 0.01 0.01 0.02 0.01 0.01 0 0.01 0.01 0.01 0.01c-10.05,14.69 -21.06,28.82 -32.91,42.38 -69.59,79.61 -168.17,139.68 -270.48,179.16l-2.36 0z"/>
   <path class="fil0" d="M2356.73 416.59c103.18,-39.41 202.79,-99.72 272.94,-179.87 10.48,-11.97 20.3,-24.38 29.38,-37.24l0.02 0.01 0.01 0 0.01 0.01 0.01 0 0.02 0.01 0.01 0 0.01 0.01 0.01 0 0.02 0.01 0.01 0 0.01 0 0.01 0.01 0.02 0 0.05 0.02 0.01 0.01 0.01 0 0.02 0.01c0.17,0.07 0.35,0.13 0.52,0.19l0.01 0.01 0.01 0 0.02 0.01c-9.13,12.94 -19.01,25.44 -29.56,37.48 -69.79,79.73 -168.65,139.85 -271.22,179.32l-2.36 0z"/>
   <path class="fil0" d="M2369.29 416.59c103.45,-39.4 203.35,-99.76 273.71,-180.03 9.66,-11.02 18.76,-22.42 27.24,-34.19l0.02 0 0.01 0 0.01 0 0.03 0.01 0.02 0 0.01 0 0.02 0.01 0.03 0 0.01 0c0.24,0.04 0.48,0.08 0.72,0.11l0.01 0 0.03 0.01 0.01 0c-8.56,11.91 -17.77,23.45 -27.54,34.6 -69.98,79.84 -169.14,140.02 -271.96,179.48l-2.38 0z"/>
   <path class="fil0" d="M2381.87 416.59c103.71,-39.38 203.89,-99.81 274.45,-180.19 9.43,-10.75 18.34,-21.86 26.65,-33.32l0.02 0 0.01 0c0.31,-0.01 0.61,-0.01 0.92,-0.03l0.01 0 0.02 0 0.02 0 0.01 0 0.02 0 0.02 0 0.01 0c-8.43,11.67 -17.48,22.97 -27.08,33.9 -70.18,79.96 -169.62,140.19 -272.7,179.64l-2.38 0zm366.01 -351.73l-0.86 -0.04 -0.01 0.01 0.87 0.04 0 -0.01z"/>
   <path class="fil0" d="M2394.43 416.59c103.98,-39.37 204.45,-99.85 275.21,-180.35 9.86,-11.22 19.14,-22.84 27.78,-34.84l0.02 0 0.02 0 0.02 -0.01 0.02 0 0.02 0 0.01 -0.01 0.02 0 0.02 0 0.02 -0.01c0.32,-0.06 0.64,-0.12 0.96,-0.19l0.02 0 0.02 0 0.02 -0.01 0.02 0c-8.8,12.27 -18.28,24.15 -28.36,35.62 -70.38,80.08 -170.1,140.36 -273.44,179.8l-2.4 0zm366.7 -350.79l-0.86 -0.07 0 0.01 0.85 0.08 0.01 -0.02z"/>
   <path class="fil0" d="M2407.02 416.59c104.23,-39.36 204.98,-99.89 275.94,-180.51 11,-12.51 21.29,-25.5 30.76,-38.97l0.02 0 0.03 -0.01 0.02 -0.01 0.02 0 0.02 -0.01 0.02 -0.01 0.02 0 0.02 -0.01 0.02 -0.01 0.02 0 0.02 -0.01 0.02 -0.01 0.03 0 0.02 -0.01 0.02 -0.01 0.02 -0.01 0.02 0 0.02 -0.01 0.02 0 0.02 -0.01 0.02 -0.01 0.02 -0.01 0.02 0 0.03 -0.01 0.02 -0.01 0.02 0 0.02 -0.01 0.02 -0.01 0.02 0 0.04 -0.02 0.02 0 0.02 -0.01 0.02 -0.01 0.03 0 0.02 -0.01 0.02 -0.01 0.02 -0.01 0.02 0 0.04 -0.02 0.02 0 0.32 -0.11 0.02 0 0.02 -0.01 0.02 -0.01 0.02 0 0.02 -0.01 0.02 -0.01 0.02 -0.01c-9.67,13.83 -20.19,27.15 -31.47,39.96 -70.59,80.2 -170.58,140.54 -274.19,179.96l-2.38 0zm367.24 -349.36l-0.85 -0.11 0 0.03 0.63 0.07 0.22 0.03 0 -0.02z"/>
   <path class="fil0" d="M2419.58 416.59c104.5,-39.34 205.54,-99.93 276.7,-180.68 12.86,-14.59 24.75,-29.85 35.5,-45.75l0 0 1.45 -0.64c-10.97,16.33 -23.13,31.99 -36.32,46.94 -70.79,80.33 -171.06,140.72 -274.93,180.13l-2.4 0zm367.72 -347.6l-0.84 -0.13 -0.01 0.03 0.03 0.01 0.81 0.12 0.01 -0.03z"/>
   <path class="fil0" d="M2432.16 416.59c104.75,-39.33 206.07,-99.97 277.44,-180.84 15.35,-17.39 29.32,-35.72 41.63,-54.97l0 0 1.49 -0.78c-12.53,19.74 -26.78,38.51 -42.49,56.3 -70.99,80.44 -171.55,140.9 -275.67,180.29l-2.4 0zm368.1 -345.59l-0.84 -0.14 -0.01 0.03 0.85 0.14 0 -0.03z"/>
   <path class="fil0" d="M2444.73 416.59c105.01,-39.31 206.62,-100.01 278.19,-181 18.27,-20.67 34.58,-42.66 48.49,-65.96l1.49 -0.86c-14.11,23.82 -30.71,46.28 -49.35,67.37 -71.19,80.56 -172.03,141.07 -276.42,180.45l-2.4 0zm368.42 -343.4l-0.84 -0.14 -0.01 0.03 0.44 0.08 0.4 0.07 0.01 -0.04z"/>
   <path class="fil0" d="M2457.3 416.59c105.28,-39.3 207.17,-100.05 278.94,-181.16 21.37,-24.14 40.06,-50.09 55.38,-77.8l1.44 -0.88c-15.48,28.26 -34.46,54.68 -56.19,79.23 -71.39,80.68 -172.51,141.24 -277.16,180.61l-2.41 0zm368.69 -341.06l-0.84 -0.15 -0.01 0.03 0.84 0.16 0.01 -0.04z"/>
   <path class="fil0" d="M2469.87 416.59c105.54,-39.29 207.71,-100.09 279.69,-181.32 24.39,-27.52 45.31,-57.39 61.72,-89.56l0.31 -0.18 0.51 -0.31 0.52 -0.31 0.02 -0.01c-16.54,32.68 -37.71,63.01 -62.44,90.92 -71.6,80.8 -173.01,141.41 -277.91,180.77l-2.42 0zm368.89 -338.61l-0.83 -0.17 -0.01 0.04 0.83 0.16 0.01 -0.03z"/>
   <path class="fil0" d="M2482.44 416.59c105.8,-39.27 208.26,-100.14 280.44,-181.49 27.12,-30.56 49.97,-64.01 67.11,-100.3l0.1 -0.06 0.48 -0.27 0.49 -0.26 0.19 -0.11c-17.23,36.77 -40.3,70.64 -67.73,101.56 -71.8,80.91 -173.49,141.59 -278.65,180.93l-2.43 0zm369.05 -336.09l-0.84 -0.17 -0.01 0.03 0.78 0.16 0.06 0.01 0.01 -0.03z"/>
   <path class="fil0" d="M2495.02 416.59c106.06,-39.26 208.8,-100.18 281.19,-181.65 29.1,-32.76 53.3,-68.84 70.83,-108.18l0.02 0 0.02 -0.01 0.01 -0.01 0.02 0 0.02 -0.01 0.12 -0.04 0.02 -0.01 0.07 -0.03 0.01 0 0.02 -0.01 0.02 0 0.02 -0.01 0.01 -0.01 0.02 0 0.02 -0.01 0.02 -0.01 0.01 0 0.02 -0.01 0.02 -0.01 0.01 0 0.02 -0.01 0.02 -0.01 0.02 0 0.01 -0.01 0.02 0 0.02 -0.01 0.01 -0.01 0.02 0 0.02 -0.01 0.02 -0.01 0.01 0 0.02 -0.01 0.02 0 0.02 -0.01 0.01 -0.01 0.02 0 0.02 -0.01 0.01 -0.01 0.02 0 0.02 -0.01 0.02 -0.01 0.01 0 0.02 -0.01 0.02 0 0.02 -0.01 0.01 -0.01 0.02 0 0.02 -0.01 0.01 -0.01 0.02 0 0.02 -0.01 0.02 0 0.01 -0.01 0.02 -0.01 0.02 0c-17.6,39.7 -41.96,76.11 -71.31,109.14 -72.01,81.03 -173.98,141.76 -279.4,181.09l-2.42 0zm369.15 -333.52l-0.83 -0.17 -0.01 0.03 0.83 0.17 0.01 -0.03z"/>
   <path class="fil0" d="M2507.59 416.59c106.32,-39.24 209.35,-100.22 281.94,-181.81 30.23,-33.98 55.18,-71.54 72.89,-112.59l0.95 -0.21 0.07 -0.01c-17.77,41.35 -42.86,79.17 -73.28,113.37 -72.21,81.15 -174.46,141.93 -280.14,181.25l-2.43 0zm369.23 -330.92l-0.84 -0.17 -0.01 0.03 0.63 0.13 0.21 0.04 0.01 -0.03z"/>
   <path class="fil0" d="M2520.15 416.59c106.59,-39.23 209.91,-100.26 282.7,-181.97 30.8,-34.57 56.13,-72.85 73.93,-114.74l0.96 -0.09c-17.86,42.14 -43.3,80.63 -74.26,115.38 -72.41,81.28 -174.94,142.11 -280.88,181.42l-2.45 0zm369.28 -328.31l-0.84 -0.17 -0.01 0.03 0.16 0.04 0.67 0.13 0.02 -0.03z"/>
   <path class="fil0" d="M2532.72 416.59c106.85,-39.21 210.45,-100.3 283.45,-182.13 30.98,-34.73 56.44,-73.19 74.3,-115.31l0.09 0 0.83 0c-17.91,42.33 -43.47,80.98 -74.59,115.86 -72.61,81.4 -175.42,142.29 -281.62,181.57l-2.46 0.01zm369.29 -325.72l-0.83 -0.17 -0.02 0.04 0.78 0.16 0.06 0.01 0.01 -0.04z"/>
   <path class="fil0" d="M2545.29 416.58c107.11,-39.19 211,-100.33 284.2,-182.28 30.89,-34.59 56.31,-72.88 74.21,-114.79l0.87 0.05 0.02 0.01c-17.94,42.1 -43.46,80.56 -74.47,115.28 -72.81,81.52 -175.91,142.46 -282.37,181.73l-2.46 0zm369.29 -323.15l-0.84 -0.16 -0.01 0.03 0.84 0.17 0.01 -0.04z"/>
   <path class="fil0" d="M2557.86 416.58c107.37,-39.17 211.54,-100.37 284.95,-182.44 30.62,-34.24 55.88,-72.11 73.79,-113.53l0.88 0.1c-17.95,41.59 -43.31,79.62 -74.04,113.98 -73.01,81.64 -176.4,142.64 -283.12,181.89l-2.46 0zm369.28 -320.65l-0.84 -0.17 -0.01 0.04 0.84 0.16 0.01 -0.03z"/>
   <path class="fil0" d="M2570.43 416.58c107.64,-39.16 212.1,-100.41 285.7,-182.61 30.23,-33.76 55.26,-71.05 73.16,-111.8l0.21 0.03 0.67 0.09c-17.96,40.91 -43.07,78.36 -73.41,112.24 -73.21,81.75 -176.88,142.81 -283.86,182.05l-2.47 0zm369.27 -318.25l-0.84 -0.16 -0.01 0.03 0.68 0.13 0.16 0.03 0.01 -0.03z"/>
   <path class="fil0" d="M2583 416.58c107.89,-39.15 212.64,-100.45 286.45,-182.77 29.79,-33.22 54.54,-69.86 72.43,-109.86l0.37 0.06 0.5 0.07c-17.94,40.16 -42.77,76.95 -72.67,110.29 -73.42,81.87 -177.37,142.98 -284.61,182.21l-2.47 0zm369.3 -316l-0.85 -0.14 -0.01 0.03 0.85 0.15 0.01 -0.04z"/>
   <path class="fil0" d="M2595.57 416.58c108.16,-39.13 213.19,-100.5 287.2,-182.93 29.34,-32.67 53.8,-68.66 71.65,-107.89l0.05 0.01 0.74 0.11 0.09 0.01c-17.91,39.39 -42.45,75.52 -71.9,108.32 -73.62,81.99 -177.85,143.16 -285.35,182.37l-2.48 0zm369.37 -313.95l-0.86 -0.13 -0.01 0.03 0.86 0.13 0.01 -0.03z"/>
   <path class="fil0" d="M2608.14 416.58c108.42,-39.12 213.73,-100.53 287.95,-183.09 28.92,-32.16 53.12,-67.54 70.94,-106.06l0.3 0.04 0.58 0.07c-17.87,38.69 -42.16,74.21 -71.19,106.51 -73.82,82.11 -178.34,143.33 -286.1,182.53l-2.48 0zm369.54 -312.21l-0.86 -0.11 -0.01 0.03 0.86 0.1 0.01 -0.02z"/>
   <path class="fil0" d="M2620.71 416.58c108.68,-39.1 214.28,-100.57 288.7,-183.25 28.57,-31.74 52.55,-66.6 70.33,-104.53l0.75 0.07 0.15 0.01c-17.84,38.11 -41.91,73.13 -70.6,105.01 -74.02,82.23 -178.82,143.51 -286.84,182.69l-2.49 0zm369.11 -311.06l-0.01 0 0.01 0zm-0.01 0l-0.08 -0.01 0 0 0.02 0.01 0.03 0 0.03 0z"/>
   <path class="fil0" d="M2633.28 416.58c108.94,-39.09 214.83,-100.62 289.45,-183.41 28.33,-31.43 52.16,-65.94 69.93,-103.44l0.26 0.02 0 1.41c-17.76,37.16 -41.44,71.37 -69.56,102.57 -74.22,82.34 -179.31,143.68 -287.59,182.85l-2.49 0z"/>
   <path class="fil0" d="M2645.85 416.58c109.2,-39.08 215.37,-100.66 290.2,-183.57 21.87,-24.24 41.06,-50.29 56.87,-78.14l0 1.69c-15.7,27.42 -34.67,53.1 -56.24,77.01 -74.43,82.47 -179.79,143.85 -288.33,183.01l-2.5 0z"/>
   <path class="fil0" d="M2658.41 416.58c109.47,-39.06 215.93,-100.7 290.96,-183.73 16.05,-17.76 30.66,-36.5 43.55,-56.2l0 1.52c-12.74,19.35 -27.14,37.77 -42.92,55.24 -74.63,82.58 -180.28,144.02 -289.07,183.17l-2.52 0z"/>
   <path class="fil0" d="M2670.98 416.58c109.73,-39.04 216.47,-100.74 291.71,-183.89 10.75,-11.88 20.85,-24.2 30.23,-36.96l0 1.42c-9.2,12.45 -19.09,24.48 -29.6,36.1 -74.83,82.7 -180.76,144.2 -289.82,183.33l-2.52 0z"/>
   <path class="fil0" d="M2683.55 416.58c109.99,-39.03 217.02,-100.78 292.46,-184.05 5.83,-6.44 11.47,-13.01 16.91,-19.7l0 1.33c-5.24,6.43 -10.67,12.74 -16.28,18.93 -75.03,82.82 -181.25,144.37 -290.58,183.49l-2.51 0z"/>
   <path class="fil0" d="M2696.12 416.58c110.25,-39.01 217.57,-100.82 293.21,-184.21 1.21,-1.33 2.4,-2.67 3.59,-4.01l0 1.27c-0.98,1.1 -1.97,2.2 -2.96,3.3 -75.24,82.94 -181.74,144.55 -291.33,183.65l-2.51 0z"/>
   <path class="fil0" d="M2708.69 416.58c105.87,-37.36 209.06,-95.7 284.23,-173.97l0 1.22c-74.68,77.49 -176.8,135.42 -281.71,172.75l-2.52 0z"/>
   <path class="fil0" d="M2721.25 416.58c100.01,-35.2 197.67,-89.08 271.67,-160.77l0 1.16c-73.47,70.96 -170.07,124.45 -269.13,159.61l-2.54 0z"/>
   <path class="fil0" d="M2733.82 416.58c94.38,-33.13 186.7,-82.87 259.1,-148.49l0 1.13c-71.83,64.93 -163.11,114.29 -256.56,147.36l-2.54 0z"/>
   <path class="fil0" d="M2746.38 416.58c88.96,-31.13 176.1,-77.01 246.54,-136.99l0 1.1c-69.83,59.32 -155.96,104.82 -243.98,135.89l-2.56 0z"/>
   <path class="fil0" d="M2758.95 416.58c83.7,-29.21 165.8,-71.45 233.97,-126.19l0 1.08c-67.52,54.1 -148.64,95.97 -231.41,125.11l-2.56 0z"/>
   <path class="fil0" d="M2771.52 416.58c78.58,-27.35 155.77,-66.16 221.4,-116.01l0 1.06c-64.96,49.23 -141.18,87.69 -218.84,114.95l-2.56 0z"/>
   <path class="fil0" d="M2784.08 416.58c73.59,-25.54 145.98,-61.12 208.84,-106.39l0 1.04c-62.16,44.68 -133.59,79.91 -206.26,105.35l-2.58 0z"/>
   <path class="fil0" d="M2796.65 416.58c68.71,-23.79 136.38,-56.3 196.27,-97.27l0 1.02c-59.17,40.4 -125.9,72.58 -193.7,96.25l-2.57 0z"/>
   <path class="fil0" d="M2809.22 416.58c63.92,-22.07 126.96,-51.68 183.7,-88.62l0 1.01c-56,36.39 -118.1,65.66 -181.12,87.61l-2.58 0z"/>
   <path class="fil0" d="M2821.78 416.58c59.23,-20.39 117.71,-47.25 171.14,-80.39l0 0.99c-52.67,32.62 -110.23,59.14 -168.55,79.4l-2.59 0z"/>
   <path class="fil0" d="M2834.35 416.58c54.6,-18.75 108.57,-42.99 158.57,-72.57l0 0.98c-49.22,29.08 -102.28,52.99 -155.98,71.59l-2.59 0z"/>
   <path class="fil0" d="M2846.91 416.58c50.05,-17.14 99.58,-38.88 146.01,-65.11l0 0.96c-45.64,25.75 -94.26,47.17 -143.41,64.15l-2.6 0z"/>
   <path class="fil0" d="M2859.49 416.58c45.54,-15.56 90.66,-34.92 133.43,-58l0 0.95c-41.96,22.62 -86.18,41.66 -130.84,57.05l-2.59 0z"/>
   <path class="fil0" d="M2872.05 416.58c41.1,-14 81.87,-31.1 120.87,-51.22l0 0.94c-38.19,19.68 -78.05,36.46 -118.27,50.28l-2.6 0z"/>
   <path class="fil0" d="M2884.61 416.58c36.71,-12.47 73.14,-27.4 108.31,-44.76l0 0.95c-34.33,16.92 -69.88,31.54 -105.69,43.81l-2.62 0z"/>
   <path class="fil0" d="M2897.18 416.58c32.34,-10.96 64.49,-23.83 95.74,-38.58l0 0.93c-30.41,14.34 -61.67,26.9 -93.13,37.65l-2.61 0z"/>
   <path class="fil0" d="M2909.74 416.58c28.02,-9.47 55.9,-20.37 83.18,-32.69l0 0.93c-26.43,11.92 -53.41,22.51 -80.55,31.76l-2.63 0z"/>
   <path class="fil0" d="M2922.31 416.58c23.73,-8 47.36,-17.02 70.61,-27.06l0 0.92c-22.39,9.66 -45.14,18.37 -67.99,26.14l-2.62 0z"/>
   <path class="fil0" d="M2934.86 416.58c19.48,-6.55 38.88,-13.78 58.06,-21.7l0 0.92c-18.31,7.55 -36.83,14.48 -55.41,20.78l-2.65 0z"/>
   <path class="fil0" d="M2947.43 416.58c15.23,-5.11 30.42,-10.64 45.49,-16.58l0 0.91c-14.2,5.6 -28.5,10.82 -42.84,15.67l-2.65 0z"/>
   <path class="fil0" d="M2960 416.58c11,-3.68 21.99,-7.58 32.92,-11.69l0 0.9c-10.06,3.78 -20.16,7.37 -30.27,10.79l-2.65 0z"/>
   <path class="fil0" d="M2972.56 416.58c6.8,-2.27 13.59,-4.62 20.36,-7.06l0 0.9c-5.89,2.12 -11.79,4.17 -17.7,6.16l-2.66 0z"/>
   <path class="fil0" d="M2985.12 416.58c2.6,-0.87 5.2,-1.75 7.8,-2.64l0 0.9c-1.71,0.58 -3.42,1.16 -5.13,1.74l-2.67 0z"/>
  </g>
 </g>
</svg>
