<svg width="25" height="24" viewBox="0 0 25 24" fill="none" xmlns="http://www.w3.org/2000/svg">
<g clip-path="url(#clip0_252_671)">
<path d="M12 4C11.0717 4 10.1815 4.36875 9.52513 5.02513C8.86875 5.6815 8.5 6.57174 8.5 7.5C8.5 8.42826 8.86875 9.3185 9.52513 9.97487C10.1815 10.6313 11.0717 11 12 11C12.9283 11 13.8185 10.6313 14.4749 9.97487C15.1313 9.3185 15.5 8.42826 15.5 7.5C15.5 6.57174 15.1313 5.6815 14.4749 5.02513C13.8185 4.36875 12.9283 4 12 4ZM6.5 7.5C6.5 6.04131 7.07946 4.64236 8.11091 3.61091C9.14236 2.57946 10.5413 2 12 2C13.4587 2 14.8576 2.57946 15.8891 3.61091C16.9205 4.64236 17.5 6.04131 17.5 7.5C17.5 8.95869 16.9205 10.3576 15.8891 11.3891C14.8576 12.4205 13.4587 13 12 13C10.5413 13 9.14236 12.4205 8.11091 11.3891C7.07946 10.3576 6.5 8.95869 6.5 7.5ZM14.882 13.5H22.118L24.199 17.662L18.5 23.995L12.8 17.662L14.882 13.5ZM16.118 15.5L15.199 17.338L18.5 21.005L21.8 17.338L20.882 15.5H16.118ZM8.5 16C7.43913 16 6.42172 16.4214 5.67157 17.1716C4.92143 17.9217 4.5 18.9391 4.5 20H11.55V22H2.5V20C2.5 18.4087 3.13214 16.8826 4.25736 15.7574C5.38258 14.6321 6.9087 14 8.5 14H11.5V16H8.5Z" fill="#C9C9D1"/>
</g>
<defs>
<clipPath id="clip0_252_671">
<rect width="24" height="24" fill="white" transform="translate(0.5)"/>
</clipPath>
</defs>
</svg>
