<svg width="70" height="70" viewBox="0 0 70 70" fill="none" xmlns="http://www.w3.org/2000/svg">
<mask id="mask0_269_150" style="mask-type:luminance" maskUnits="userSpaceOnUse" x="5" y="5" width="60" height="61">
<path d="M5 5.33331H65V65.3333H5V5.33331Z" fill="white"/>
</mask>
<g mask="url(#mask0_269_150)">
<path d="M5.57001 26.2584C5.57001 26.2584 4.11001 25.1909 5.86251 23.7709L9.95001 20.0759C9.95001 20.0759 11.1175 18.8334 12.355 19.9159L50.0575 48.7709V62.6059C50.0575 62.6059 50.04 64.7809 47.2825 64.5409L5.57001 26.2584Z" fill="#C9C9D1"/>
<path d="M15.29 35.1758L5.57002 44.1058C5.57002 44.1058 4.57002 44.8558 5.57002 46.1983L10.0825 50.3483C10.0825 50.3483 11.155 51.5108 12.7375 50.1858L23.04 42.2908L15.29 35.1758ZM32.35 35.2483L50.175 21.4933L50.0575 7.73083C50.0575 7.73083 49.295 4.72583 46.7575 6.29083L23.04 28.1083L32.35 35.2483Z" fill="#C9C9D1"/>
<path d="M47.28 64.5584C48.315 65.6284 49.57 65.2784 49.57 65.2784L63.46 58.3609C65.2375 57.1359 64.9875 55.6159 64.9875 55.6159V14.3034C64.9875 12.4884 63.15 11.8609 63.15 11.8609L51.11 5.99337C48.48 4.35087 46.7575 6.29087 46.7575 6.29087C46.7575 6.29087 48.9725 4.67837 50.0575 7.73087V62.3559C50.0575 62.7309 49.9775 63.0984 49.82 63.4309C49.5025 64.0784 48.815 64.6809 47.165 64.4309L47.28 64.5584Z" fill="#C9C9D1"/>
</g>
</svg>
