<?xml version="1.0" encoding="UTF-8"?>
<!DOCTYPE svg PUBLIC "-//W3C//DTD SVG 1.1//EN" "http://www.w3.org/Graphics/SVG/1.1/DTD/svg11.dtd">
<!-- Creator: CorelDRAW -->
<svg xmlns="http://www.w3.org/2000/svg" xml:space="preserve" width="30mm" height="4.1mm" version="1.1" style="shape-rendering:geometricPrecision; text-rendering:geometricPrecision; image-rendering:optimizeQuality; fill-rule:evenodd; clip-rule:evenodd"
viewBox="0 0 3000 410"
 xmlns:xlink="http://www.w3.org/1999/xlink"
 xmlns:xodm="http://www.corel.com/coreldraw/odm/2003">
 <defs>
  <style type="text/css">
   <![CDATA[
    .fil1 {fill:url(#id0);fill-rule:nonzero}
    .fil0 {fill:url(#id1);fill-rule:nonzero}
   ]]>
  </style>
  <linearGradient id="id0" gradientUnits="userSpaceOnUse" x1="1491.32" y1="205.97" x2="1494.54" y2="3.9">
   <stop offset="0" style="stop-opacity:1; stop-color:#211E25"/>
   <stop offset="0.6" style="stop-opacity:1; stop-color:#415556"/>
   <stop offset="1" style="stop-opacity:1; stop-color:#628C88"/>
  </linearGradient>
  <linearGradient id="id1" gradientUnits="userSpaceOnUse" x1="1440.63" y1="-79.84" x2="1553.48" y2="603.65">
   <stop offset="0" style="stop-opacity:1; stop-color:#211E25"/>
   <stop offset="1" style="stop-opacity:1; stop-color:#628C88"/>
  </linearGradient>
 </defs>
 <g id="Camada_x0020_1">
  <metadata id="CorelCorpID_0Corel-Layer"/>
  <path class="fil0" d="M531.56 74.99l2.71 -0.15c-0.9,0.03 -1.81,0.09 -2.71,0.15zm1922.74 0l-2.71 -0.15c0.9,0.03 1.81,0.09 2.71,0.15zm-961.36 341.62l1499.98 -0.03 0 -296.82 0.01 0c0,-4.54 0,-9.08 -0.01,-13.62l0 -0.12 0 -0.32 -3.5 -0.21c-25.22,-1.73 -63.62,-9.68 -104.35,-18.11 -59.01,-12.22 -122.92,-25.45 -158.89,-22.3 -59.51,5.21 -91.24,-1.45 -128.13,-9.18 -38.79,-8.13 -83.29,-17.46 -171.7,-15.49 -19.59,0.44 -37.05,0.96 -53.12,1.43 -101.07,3 -147.22,4.37 -321.23,-26.43 -34.09,-6.03 -73.1,-8.64 -112.45,-8.67 -44.34,-0.05 -89.11,3.18 -127.77,8.45 -42.1,5.74 -85.17,4.38 -125.99,3.09 -24.28,-0.77 -47.78,-1.51 -69.81,-0.72 -36.26,1.3 -64.18,0.55 -101.94,-0.47l-21.07 -0.56 0 0 -0.04 0 -0.04 0 0 0 -21.07 0.56c-37.76,1.02 -65.68,1.77 -101.94,0.47 -22.03,-0.79 -45.53,-0.05 -69.81,0.72 -40.82,1.29 -83.89,2.65 -125.99,-3.09 -38.66,-5.27 -83.43,-8.5 -127.77,-8.45 -39.35,0.03 -78.36,2.64 -112.45,8.67 -174.01,30.8 -220.16,29.43 -321.23,26.43 -16.07,-0.47 -33.53,-0.99 -53.12,-1.43 -88.41,-1.97 -132.91,7.36 -171.7,15.49 -36.89,7.73 -68.62,14.39 -128.13,9.18 -35.97,-3.15 -99.88,10.08 -158.89,22.3 -40.73,8.43 -79.13,16.38 -104.35,18.11l-3.5 0.21 0 0.32 0 0.12c-0.02,4.54 -0.01,9.08 -0.01,13.62l0.01 0 0 296.82 1499.98 0.03 0.01 0 0.01 0z"/>
  <path class="fil1" d="M2992.91 128.84l-0.23 -22.45 -0.01 -0.88c-0.48,-0.02 -0.85,0 -1.49,0 -0.69,0.01 -1.4,0.02 -1.97,-0.02 -25.18,-1.73 -63.56,-9.68 -104.27,-18.1 -59.05,-12.22 -123,-25.46 -159.06,-22.31 -59.43,5.2 -91.11,-1.45 -127.96,-9.17 -38.81,-8.14 -83.34,-17.47 -171.83,-15.5 -19.61,0.44 -37.06,0.96 -53.12,1.43 -101.02,3 -147.15,4.37 -321.12,-26.42 -34.12,-6.04 -73.16,-8.65 -112.55,-8.68 -44.37,-0.05 -89.17,3.18 -127.84,8.46 -42.06,5.73 -85.1,4.37 -125.9,3.08 -24.29,-0.77 -47.8,-1.51 -69.84,-0.72 -36.17,1.29 -84.63,0.08 -122.51,-0.94l0 -0.01 -0.28 0.01 -0.28 -0.01 0 0.01c-37.88,1.02 -86.35,2.24 -122.51,0.94 -22.04,-0.79 -45.55,-0.05 -69.84,0.72 -40.8,1.29 -83.84,2.65 -125.9,-3.08 -38.67,-5.28 -83.47,-8.51 -127.84,-8.46 -39.39,0.03 -78.43,2.64 -112.55,8.68 -173.97,30.79 -220.1,29.42 -321.12,26.42 -16.06,-0.47 -33.51,-0.99 -53.12,-1.43 -88.49,-1.97 -133.02,7.36 -171.83,15.5 -36.85,7.72 -68.53,14.37 -127.96,9.17 -36.06,-3.15 -100.01,10.09 -159.06,22.31 -40.71,8.42 -79.09,16.37 -104.27,18.1 -0.57,0.04 -1.28,0.03 -1.97,0.02 -0.64,0 -1.26,0.17 -1.74,0.19l-0.01 0.88 0.02 22.26 -0.01 0.91c17.11,-0.85 33.15,-3.18 48.83,-5.47 39.3,-5.74 75.21,-10.99 112.55,9.66 10.25,5.66 21.18,12.31 32.53,19.2 55.91,33.97 121.88,74.06 161.44,31.8 17.58,-18.78 37.8,-36.27 59.7,-51.9 22.14,-15.8 46.01,-29.7 70.62,-41.1 15.71,-7.27 32.21,-13.29 48.29,-15.3 16.01,-2.01 31.61,-0.05 45.64,8.57 9.22,5.67 32.03,6.88 58.91,8.3 39.42,2.08 87.67,4.63 113.6,22.26 39.15,26.62 97.69,60.05 152.45,73.38 38.87,9.47 75.87,8.82 102.79,-11.52 19.64,-14.84 37.6,-34.61 55.55,-54.38 35.71,-39.31 71.42,-78.63 120.08,-78.55 20.34,0.03 38.56,1.44 55.7,2.77 32.86,2.55 61.84,4.79 95.03,-3.51 30.23,-7.56 66.78,-5.88 103.14,-4.2 21.56,0.99 43.01,1.98 63.14,1.04 20.13,0.94 41.58,-0.05 63.14,-1.04 36.36,-1.68 72.91,-3.36 103.14,4.2 33.19,8.3 62.17,6.06 95.03,3.51 17.14,-1.33 35.35,-2.74 55.7,-2.77 48.65,-0.08 84.37,39.24 120.08,78.55 17.95,19.77 35.91,39.54 55.55,54.38 26.92,20.34 63.92,20.99 102.79,11.52 54.76,-13.33 113.29,-46.76 152.45,-73.38 25.93,-17.63 74.18,-20.18 113.6,-22.26 26.88,-1.42 49.69,-2.63 58.91,-8.3 14.03,-8.62 29.63,-10.58 45.63,-8.57 16.09,2.01 32.59,8.03 48.3,15.3 24.61,11.4 48.48,25.3 70.62,41.1 21.9,15.63 42.11,33.12 59.7,51.9 39.56,42.26 105.53,2.17 161.44,-31.8 11.35,-6.89 22.28,-13.54 32.53,-19.2 37.34,-20.65 73.25,-15.4 112.54,-9.66 15.69,2.29 31.73,4.62 48.84,5.47l-0.01 -0.91z"/>
 </g>
</svg>
