<svg width="34" height="34" viewBox="0 0 34 34" fill="none" xmlns="http://www.w3.org/2000/svg">
<rect width="34" height="34" fill="#1F1F2E"/>
<path d="M21.9 12.037C21.2582 11.3888 20.4938 10.8748 19.6513 10.5251C18.8088 10.1753 17.9052 9.99686 16.993 10C13.171 10 10.056 13.115 10.056 16.937C10.056 18.162 10.378 19.352 10.98 20.402L10 24L13.675 23.034C14.69 23.587 15.831 23.881 16.993 23.881C20.815 23.881 23.93 20.766 23.93 16.944C23.93 15.089 23.209 13.346 21.9 12.037ZM16.993 22.705C15.957 22.705 14.942 22.425 14.053 21.9L13.843 21.774L11.659 22.348L12.24 20.22L12.1 20.003C11.5244 19.0839 11.2188 18.0215 11.218 16.937C11.218 13.759 13.808 11.169 16.986 11.169C18.526 11.169 19.975 11.771 21.06 12.863C21.5972 13.3978 22.023 14.0339 22.3125 14.7344C22.6021 15.435 22.7498 16.186 22.747 16.944C22.761 20.122 20.171 22.705 16.993 22.705ZM20.157 18.393C19.982 18.309 19.128 17.889 18.974 17.826C18.813 17.77 18.701 17.742 18.582 17.91C18.463 18.085 18.134 18.477 18.036 18.589C17.938 18.708 17.833 18.722 17.658 18.631C17.483 18.547 16.923 18.358 16.265 17.77C15.747 17.308 15.404 16.741 15.299 16.566C15.201 16.391 15.285 16.3 15.376 16.209C15.453 16.132 15.551 16.006 15.635 15.908C15.719 15.81 15.754 15.733 15.81 15.621C15.866 15.502 15.838 15.404 15.796 15.32C15.754 15.236 15.404 14.382 15.264 14.032C15.124 13.696 14.977 13.738 14.872 13.731H14.536C14.417 13.731 14.235 13.773 14.074 13.948C13.92 14.123 13.472 14.543 13.472 15.397C13.472 16.251 14.095 17.077 14.179 17.189C14.263 17.308 15.404 19.058 17.14 19.807C17.553 19.989 17.875 20.094 18.127 20.171C18.54 20.304 18.918 20.283 19.219 20.241C19.555 20.192 20.248 19.821 20.388 19.415C20.535 19.009 20.535 18.666 20.486 18.589C20.437 18.512 20.332 18.477 20.157 18.393Z" fill="#C9C9D1"/>
</svg>
