<svg width="19" height="19" viewBox="0 0 19 19" fill="none" xmlns="http://www.w3.org/2000/svg">
<g id="ic:baseline-whatsapp">
<path id="Vector" d="M14.8828 3.96098C14.1666 3.23749 13.3134 2.66385 12.3732 2.27352C11.4329 1.8832 10.4243 1.684 9.40625 1.68755C5.14062 1.68755 1.66406 5.16411 1.66406 9.42973C1.66406 10.7969 2.02344 12.125 2.69531 13.2969L1.60156 17.3125L5.70312 16.2344C6.83594 16.8516 8.10938 17.1797 9.40625 17.1797C13.6719 17.1797 17.1484 13.7032 17.1484 9.43755C17.1484 7.36723 16.3438 5.42192 14.8828 3.96098ZM9.40625 15.8672C8.25 15.8672 7.11719 15.5547 6.125 14.9688L5.89062 14.8282L3.45313 15.4688L4.10156 13.0938L3.94531 12.8516C3.30293 11.8258 2.96183 10.6401 2.96094 9.42973C2.96094 5.88286 5.85156 2.99223 9.39844 2.99223C11.1172 2.99223 12.7344 3.66411 13.9453 4.88286C14.5449 5.47971 15.0201 6.18963 15.3433 6.97147C15.6665 7.75332 15.8313 8.59154 15.8281 9.43755C15.8438 12.9844 12.9531 15.8672 9.40625 15.8672ZM12.9375 11.0547C12.7422 10.961 11.7891 10.4922 11.6172 10.4219C11.4375 10.3594 11.3125 10.3282 11.1797 10.5157C11.0469 10.711 10.6797 11.1485 10.5703 11.2735C10.4609 11.4063 10.3438 11.4219 10.1484 11.3204C9.95312 11.2266 9.32812 11.0157 8.59375 10.3594C8.01562 9.8438 7.63281 9.21098 7.51562 9.01567C7.40625 8.82036 7.5 8.7188 7.60156 8.61723C7.6875 8.5313 7.79688 8.39067 7.89062 8.2813C7.98438 8.17192 8.02344 8.08598 8.08594 7.96098C8.14844 7.82817 8.11719 7.7188 8.07031 7.62505C8.02344 7.5313 7.63281 6.57817 7.47656 6.18755C7.32031 5.81255 7.15625 5.85942 7.03906 5.85161H6.66406C6.53125 5.85161 6.32812 5.89848 6.14844 6.0938C5.97656 6.28911 5.47656 6.75786 5.47656 7.71098C5.47656 8.66411 6.17188 9.58598 6.26562 9.71098C6.35938 9.8438 7.63281 11.7969 9.57031 12.6329C10.0312 12.836 10.3906 12.9532 10.6719 13.0391C11.1328 13.1875 11.5547 13.1641 11.8906 13.1172C12.2656 13.0625 13.0391 12.6485 13.1953 12.1954C13.3594 11.7422 13.3594 11.3594 13.3047 11.2735C13.25 11.1875 13.1328 11.1485 12.9375 11.0547Z" fill="#C9C9D1"/>
</g>
</svg>
